<svg width="21" height="16" viewBox="0 0 21 16" fill="none" xmlns="http://www.w3.org/2000/svg">
<path d="M6.24886 0C4.17578 0 2.48923 1.78821 2.48923 3.9862C2.48923 6.18419 4.17578 7.9724 6.24886 7.9724C8.32193 7.9724 10.0085 6.18419 10.0085 3.9862C10.0085 1.78821 8.32197 0 6.24886 0Z" fill="black"/>
<path d="M14.7964 0.570312C14.7879 0.570312 14.7793 0.570353 14.7708 0.570393C13.9008 0.577594 13.0881 0.944932 12.4826 1.60482C11.8877 2.25304 11.5642 3.1082 11.5716 4.01273C11.5791 4.91725 11.9167 5.76695 12.5222 6.40531C13.1325 7.04862 13.9409 7.40192 14.8012 7.40192C14.8099 7.40192 14.8185 7.40188 14.8272 7.40184C15.6972 7.39464 16.5099 7.02726 17.1154 6.36742C17.7103 5.71919 18.0338 4.86403 18.0264 3.95947C18.0109 2.085 16.5644 0.570312 14.7964 0.570312Z" fill="black"/>
<path d="M14.9549 8.05444H14.6428C13.1888 8.05444 11.8621 8.6072 10.8604 9.51317C11.111 9.70547 11.3495 9.91507 11.5756 10.1412C12.2426 10.8082 12.7664 11.5854 13.1325 12.4511C13.4624 13.2308 13.6507 14.0523 13.6945 14.8983H20.5976V13.6967C20.5976 10.5857 18.0663 8.05444 14.9549 8.05444Z" fill="black"/>
<path d="M12.4853 14.8986C12.3714 13.0645 11.4417 11.4513 10.0542 10.4174C9.04485 9.66507 7.7929 9.21973 6.43675 9.21973H6.06101C2.71349 9.21977 0 11.9332 0 15.2807V16H12.4974V15.2807C12.4974 15.1524 12.4933 15.0249 12.4853 14.8986Z" fill="black"/>
</svg>
