<svg width="15" height="16" viewBox="0 0 15 16" fill="none" xmlns="http://www.w3.org/2000/svg">
    <path d="M14.0914 2.23928C14.0627 2.03299 13.9143 1.8633 13.7136 1.80752L7.28291 0.0191374C7.19123 -0.00637913 7.0944 -0.00637913 7.00265 0.0191374L0.571929 1.80752C0.371283 1.8633 0.222855 2.03292 0.194132 2.23928C0.156833 2.50748 -0.694066 8.8445 1.48843 11.997C3.66835 15.1457 6.8842 15.9526 7.02001 15.9854C7.06037 15.9952 7.10151 16 7.14278 16C7.18405 16 7.22518 15.9951 7.26555 15.9854C7.40143 15.9526 10.6173 15.1457 12.7971 11.997C14.9796 8.84457 14.1287 2.50755 14.0914 2.23928ZM11.2898 5.9389L6.90337 10.3253C6.8013 10.4274 6.66745 10.4785 6.53366 10.4785C6.39987 10.4785 6.26602 10.4274 6.16395 10.3253L3.45188 7.61323C3.35379 7.5152 3.29871 7.38218 3.29871 7.24352C3.29871 7.10485 3.35386 6.97183 3.45188 6.87381L3.99037 6.33531C4.19458 6.13118 4.52566 6.13111 4.7298 6.33531L6.53366 8.13917L10.0119 4.66091C10.1099 4.56282 10.2429 4.50774 10.3816 4.50774C10.5202 4.50774 10.6533 4.56282 10.7513 4.66091L11.2898 5.19941C11.494 5.40361 11.494 5.7347 11.2898 5.9389Z" fill="white"/>
</svg>
