<svg width="14" height="14" viewBox="0 0 14 14" fill="none" xmlns="http://www.w3.org/2000/svg">
<path d="M13.788 6.48791L11.0571 3.75703C10.9898 3.68978 10.91 3.63644 10.8221 3.60005C10.7343 3.56365 10.6401 3.54492 10.545 3.54492C10.4499 3.54492 10.3557 3.56365 10.2679 3.60005C10.18 3.63644 10.1002 3.68978 10.033 3.75703C9.89715 3.89283 9.82086 4.07702 9.82086 4.26907C9.82086 4.46112 9.89715 4.64531 10.033 4.78111L11.5277 6.27582H3.62074C3.42869 6.27582 3.2445 6.35212 3.1087 6.48792C2.9729 6.62372 2.89661 6.80791 2.89661 6.99996C2.89661 7.19201 2.9729 7.3762 3.1087 7.512C3.2445 7.64781 3.42869 7.7241 3.62074 7.7241H11.5277L10.033 9.21881C9.89715 9.35462 9.82086 9.53881 9.82087 9.73086C9.82087 9.92292 9.89716 10.1071 10.033 10.2429C10.1688 10.3787 10.353 10.455 10.545 10.455C10.7371 10.455 10.9213 10.3787 11.0571 10.2429L13.788 7.51199C13.9238 7.37618 14.0001 7.192 14.0001 6.99995C14.0001 6.80789 13.9238 6.62371 13.788 6.48791Z" fill="black"/>
<path d="M8.44828 11.1034C8.25622 11.1034 8.07204 11.1797 7.93623 11.3155C7.80043 11.4513 7.72414 11.6355 7.72414 11.8276V12.5517H1.44828V1.44828H7.72414V2.17241C7.72414 2.36447 7.80043 2.54865 7.93623 2.68446C8.07204 2.82026 8.25622 2.89655 8.44828 2.89655C8.64033 2.89655 8.82452 2.82026 8.96032 2.68446C9.09612 2.54865 9.17241 2.36447 9.17241 2.17241V1.2069C9.17241 1.0484 9.1412 0.891465 9.08054 0.745037C9.01989 0.59861 8.93099 0.465563 8.81892 0.353492C8.70685 0.241421 8.5738 0.152522 8.42738 0.0918695C8.28095 0.0312173 8.12401 0 7.96552 0H1.2069C0.886808 0 0.579829 0.127155 0.353492 0.353492C0.127155 0.579829 0 0.886808 0 1.2069V12.7931C0 13.1132 0.127155 13.4202 0.353492 13.6465C0.579829 13.8728 0.886808 14 1.2069 14H7.96552C8.12401 14 8.28095 13.9688 8.42738 13.9081C8.5738 13.8475 8.70685 13.7586 8.81892 13.6465C8.93099 13.5344 9.01989 13.4014 9.08054 13.255C9.1412 13.1085 9.17241 12.9516 9.17241 12.7931V11.8276C9.17241 11.6355 9.09612 11.4513 8.96032 11.3155C8.82452 11.1797 8.64033 11.1034 8.44828 11.1034Z" fill="black"/>
</svg>

