<svg width="14" height="9" viewBox="0 0 14 9" fill="none" xmlns="http://www.w3.org/2000/svg">
<path d="M13.911 4.18924C13.786 4.01815 10.806 0 6.99994 0C3.19392 0 0.213774 4.01815 0.0888401 4.18907C-0.0296134 4.35139 -0.0296134 4.57153 0.0888401 4.73385C0.213774 4.90494 3.19392 8.92309 6.99994 8.92309C10.806 8.92309 13.786 4.90491 13.911 4.73398C14.0297 4.5717 14.0297 4.35139 13.911 4.18924ZM6.99994 8.00001C4.1964 8.00001 1.76824 5.33309 1.04946 4.46123C1.76731 3.5886 4.19039 0.923073 6.99994 0.923073C9.80334 0.923073 12.2313 3.58953 12.9504 4.46186C12.2326 5.33445 9.80949 8.00001 6.99994 8.00001Z" fill="black"/>
<path d="M6.99984 1.69238C5.4729 1.69238 4.23059 2.93469 4.23059 4.46163C4.23059 5.98856 5.4729 7.23088 6.99984 7.23088C8.52677 7.23088 9.76908 5.98856 9.76908 4.46163C9.76908 2.93469 8.52677 1.69238 6.99984 1.69238ZM6.99984 6.30777C5.98183 6.30777 5.15369 5.47961 5.15369 4.46163C5.15369 3.44365 5.98185 2.61548 6.99984 2.61548C8.01782 2.61548 8.84598 3.44365 8.84598 4.46163C8.84598 5.47961 8.01785 6.30777 6.99984 6.30777Z" fill="black"/>
</svg>
