<svg width="14" height="14" viewBox="0 0 14 14" fill="none" xmlns="http://www.w3.org/2000/svg">
<path d="M7.00024 0C3.13371 0 0 3.13276 0 7.00024C0 10.8658 3.13371 14 7.00024 14C10.8668 14 14.0005 10.8658 14.0005 7.00024C14 3.13276 10.8663 0 7.00024 0ZM7.00024 12.8581C3.76367 12.8581 1.14095 10.2359 1.14095 6.99976C1.14095 3.7632 3.76367 1.14 7.00024 1.14C10.2359 1.14 12.8586 3.76367 12.8586 6.99976C12.8586 10.2359 10.2359 12.8581 7.00024 12.8581Z" fill="black"/>
<path d="M6.81866 9.16602C6.18443 9.16602 5.73364 9.6168 5.73364 10.2752C5.73364 10.9085 6.17258 11.3839 6.81866 11.3839C7.48892 11.3839 7.91553 10.9085 7.91553 10.2752C7.90273 9.6168 7.47564 9.16602 6.81866 9.16602Z" fill="black"/>
<path d="M6.98794 2.8877C6.12334 2.8877 5.40474 3.13086 4.953 3.38683L5.36777 4.71597C5.68441 4.49697 6.17217 4.35003 6.57413 4.35003C7.18324 4.36283 7.4648 4.65529 7.4648 5.08143C7.4648 5.48434 7.14721 5.88583 6.75663 6.36174C6.20867 7.0083 6.00105 7.64206 6.03802 8.26349L6.04987 8.5806H7.671V8.36113C7.65915 7.81223 7.85444 7.33632 8.29243 6.83718C8.75649 6.32524 9.34048 5.71566 9.34048 4.78896C9.34048 3.77695 8.59817 2.8877 6.98794 2.8877Z" fill="black"/>
</svg>
