<svg width="24" height="24" viewBox="0 0 24 24" fill="none" xmlns="http://www.w3.org/2000/svg">
<path d="M23.3531 10.4388C23.3524 10.4383 23.3518 10.4376 23.3513 10.437L13.5612 0.647278C13.1439 0.229797 12.5891 0 11.9989 0C11.4088 0 10.854 0.229797 10.4365 0.647278L0.651514 10.4321C0.648218 10.4354 0.644739 10.4388 0.641626 10.4421C-0.215307 11.304 -0.213843 12.7024 0.645838 13.5621C1.0386 13.955 1.55715 14.1824 2.11178 14.2064C2.13449 14.2086 2.15719 14.2097 2.18008 14.2097H2.57009V21.4142C2.57009 22.84 3.73025 24 5.15609 24H8.98629C9.37466 24 9.68942 23.6851 9.68942 23.2969V17.6484C9.68942 16.9979 10.2188 16.4687 10.8693 16.4687H13.1285C13.7791 16.4687 14.3083 16.9979 14.3083 17.6484V23.2969C14.3083 23.6851 14.623 24 15.0114 24H18.8416C20.2676 24 21.4276 22.84 21.4276 21.4142V14.2097H21.7894C22.3794 14.2097 22.9342 13.9799 23.3518 13.5623C24.2124 12.7013 24.2128 11.3004 23.3531 10.4388ZM22.3574 12.568C22.2056 12.7198 22.0038 12.8035 21.7894 12.8035H20.7245C20.3361 12.8035 20.0213 13.1182 20.0213 13.5066V21.4142C20.0213 22.0646 19.4922 22.5938 18.8416 22.5938H15.7145V17.6484C15.7145 16.2226 14.5545 15.0624 13.1285 15.0624H10.8693C9.44332 15.0624 8.28317 16.2226 8.28317 17.6484V22.5938H5.15609C4.5057 22.5938 3.97634 22.0646 3.97634 21.4142V13.5066C3.97634 13.1182 3.66158 12.8035 3.27322 12.8035H2.22659C2.2156 12.8027 2.2048 12.8022 2.19363 12.802C1.98416 12.7983 1.78768 12.7152 1.64047 12.5678C1.32736 12.2547 1.32736 11.7451 1.64047 11.4318C1.64065 11.4318 1.64065 11.4316 1.64083 11.4315L1.64138 11.4309L11.4311 1.64154C11.5827 1.48975 11.7843 1.40625 11.9989 1.40625C12.2133 1.40625 12.4149 1.48975 12.5667 1.64154L22.3543 11.4289C22.3557 11.4304 22.3574 11.4318 22.3589 11.4333C22.6703 11.7469 22.6698 12.2554 22.3574 12.568Z" fill="black"/>
</svg>
