<svg width="14" height="14" viewBox="0 0 14 14" fill="none" xmlns="http://www.w3.org/2000/svg">
<path d="M7.00024 0C3.13371 0 0 3.13276 0 7.00024C0 10.8658 3.13371 14 7.00024 14C10.8653 14 13.9995 10.8658 13.9995 7.00024C13.9995 3.13276 10.8658 0 7.00024 0ZM7.00024 12.8581C3.76272 12.8581 1.14095 10.2359 1.14095 6.99976C1.14095 3.7632 3.76272 1.14 7.00024 1.14C10.2349 1.14 12.8586 3.76367 12.8586 6.99976C12.859 10.2359 10.2349 12.8581 7.00024 12.8581Z" fill="black"/>
<path d="M7.97768 5.28198H6.01005V5.2853H5.2777V6.4291H6.01005V10.5141H5.23267V11.6072H6.01005V11.6148H7.97768V11.6072H8.62139V10.5141H7.97768V5.28198Z" fill="black"/>
<path d="M6.98036 4.50501C7.64161 4.50501 8.04215 4.06513 8.04215 3.52049C8.02936 2.96494 7.64114 2.53833 7.00691 2.53833C6.37362 2.53833 5.95886 2.96447 5.95886 3.52049C5.95839 4.06513 6.35988 4.50501 6.98036 4.50501Z" fill="black"/>
</svg>
