<svg width="14" height="15" viewBox="0 0 14 15" fill="none" xmlns="http://www.w3.org/2000/svg">
<path d="M9.19355 0C6.54325 0 4.38704 2.1562 4.38704 4.80651C4.38704 5.39571 4.49173 5.96827 4.69843 6.512L0.102602 11.1082C0.0369135 11.1739 0 11.263 0 11.3558V13.8707C0 14.0642 0.15682 14.221 0.350276 14.221H2.42277C2.51556 14.221 2.60456 14.1842 2.67024 14.1186L3.36866 13.4213C3.43448 13.3556 3.47145 13.2664 3.47145 13.1734V12.3158H4.32796C4.52142 12.3158 4.67824 12.159 4.67824 11.9655V11.6222H5.02157C5.215 11.6222 5.37185 11.4654 5.37185 11.2719V10.5182H6.12556C6.21844 10.5182 6.30752 10.4813 6.37323 10.4156L7.48761 9.30123C8.03143 9.50813 8.60407 9.61296 9.19349 9.61296C11.8438 9.61296 14 7.45675 14 4.80645C14 2.1562 11.8439 0 9.19355 0ZM9.19355 8.91241C8.62021 8.91241 8.0657 8.79661 7.54538 8.56819C7.41084 8.50914 7.25933 8.54163 7.16011 8.63832C7.15903 8.63935 7.15797 8.64018 7.15692 8.64126L5.98052 9.81766H5.02163C4.82817 9.81766 4.67135 9.97448 4.67135 10.1679V10.9217H4.32802C4.13459 10.9217 3.97774 11.0785 3.97774 11.2719V11.6152H3.12121C2.92778 11.6152 2.77093 11.7721 2.77093 11.9655V13.0281L2.27783 13.5204H0.700607V13.0254L4.98194 8.74414C5.10506 8.62101 5.10506 8.42142 4.98194 8.29832C4.85881 8.17522 4.65927 8.17516 4.53606 8.29832L0.700607 12.1338V11.501L5.35843 6.84281C5.35949 6.84175 5.36029 6.84078 5.36127 6.83975C5.45798 6.74062 5.49059 6.5891 5.43154 6.45445C5.20333 5.93416 5.08768 5.37968 5.08768 4.80653C5.08768 2.54251 6.9296 0.700579 9.19363 0.700579C11.4577 0.700579 13.2995 2.54248 13.2995 4.80653C13.2995 7.07051 11.4575 8.91241 9.19355 8.91241Z" fill="black"/>
<path d="M10.6563 2.03149C9.9328 2.03149 9.34424 2.62006 9.34424 3.34352C9.34424 4.06699 9.9328 4.65555 10.6563 4.65555C11.3797 4.65555 11.9683 4.06699 11.9683 3.34352C11.9683 2.62006 11.3798 2.03149 10.6563 2.03149ZM10.6563 3.955C10.3191 3.955 10.0448 3.68069 10.0448 3.34352C10.0448 3.00636 10.3191 2.73205 10.6563 2.73205C10.9934 2.73205 11.2677 3.00636 11.2677 3.34352C11.2677 3.68069 10.9934 3.955 10.6563 3.955Z" fill="black"/>
</svg>
