<svg width="17" height="16" viewBox="0 0 17 16" fill="none" xmlns="http://www.w3.org/2000/svg">
  <path
    d="M2.02997 0C0.802529 0 0 0.806002 0 1.86538C0 2.90136 0.778621 3.73035 1.98287 3.73035H2.00617C3.25762 3.73035 4.03645 2.90136 4.03645 1.86538C4.01305 0.806002 3.25762 0 2.02997 0Z"
    fill="black"/>
  <path d="M0.212097 5.20435H3.80044V16H0.212097V5.20435Z" fill="black"/>
  <path
    d="M12.6081 4.95093C10.6724 4.95093 9.37433 6.76992 9.37433 6.76992V5.2043H5.78589V16H9.37413V9.97125C9.37413 9.6485 9.39752 9.32627 9.49233 9.09547C9.75174 8.45099 10.3421 7.78333 11.3334 7.78333C12.6319 7.78333 13.1512 8.77333 13.1512 10.2246V16H16.7392V9.80993C16.7392 6.49397 14.9688 4.95093 12.6081 4.95093Z"
    fill="black"/>
</svg>
