<svg width="31" height="24" viewBox="0 0 31 24" fill="none" xmlns="http://www.w3.org/2000/svg">
<path d="M9.37333 0C6.26371 0 3.73389 2.68232 3.73389 5.9793C3.73389 9.27629 6.26371 11.9586 9.37333 11.9586C12.4829 11.9586 15.0128 9.27629 15.0128 5.9793C15.0128 2.68232 12.483 0 9.37333 0Z" fill="black"/>
<path d="M22.1945 0.855469C22.1817 0.855469 22.1688 0.855529 22.1561 0.855589C20.8511 0.866391 19.6321 1.4174 18.7238 2.40723C17.8314 3.37956 17.3462 4.66231 17.3574 6.01909C17.3686 7.37588 17.8749 8.65042 18.7832 9.60797C19.6986 10.5729 20.9112 11.1029 22.2018 11.1029C22.2147 11.1029 22.2277 11.1028 22.2408 11.1028C23.5458 11.092 24.7647 10.5409 25.673 9.55112C26.5654 8.57879 27.0506 7.29605 27.0395 5.9392C27.0162 3.1275 24.8466 0.855469 22.1945 0.855469Z" fill="black"/>
<path d="M22.4324 12.0818H21.9641C19.7833 12.0818 17.7931 12.9109 16.2905 14.2699C16.6665 14.5583 17.0243 14.8727 17.3635 15.2119C18.364 16.2124 19.1497 17.3782 19.6988 18.6768C20.1936 19.8463 20.476 21.0786 20.5418 22.3476H30.8963V20.5451C30.8963 15.8787 27.0994 12.0818 22.4324 12.0818Z" fill="black"/>
<path d="M18.7279 22.3478C18.5572 19.5967 17.1626 17.1769 15.0813 15.626C13.5673 14.4976 11.6893 13.8296 9.65513 13.8296H9.09151C4.07024 13.8297 0 17.8998 0 22.9211V24.0001H18.746V22.9211C18.746 22.7286 18.74 22.5373 18.7279 22.3478Z" fill="black"/>
</svg>
