<svg width="33" height="25" viewBox="0 0 32 24" fill="black" xmlns="http://www.w3.org/2000/svg">
  <path
    d="M9.86023 11.5609C11.4485 11.5609 12.8236 10.9913 13.9475 9.86737C15.071 8.74365 15.6409 7.36871 15.6409 5.78027C15.6409 4.19238 15.0712 2.81726 13.9473 1.69318C12.8234 0.569641 11.4483 0 9.86023 0C8.27179 0 6.89685 0.569641 5.77313 1.69336C4.64941 2.81708 4.07959 4.1922 4.07959 5.78027C4.07959 7.36871 4.64941 8.74384 5.77313 9.86755C6.89722 10.9911 8.27234 11.5609 9.86023 11.5609ZM6.76776 2.68781C7.63 1.82556 8.64148 1.40643 9.86023 1.40643C11.0788 1.40643 12.0905 1.82556 12.9529 2.68781C13.8151 3.55023 14.2344 4.56189 14.2344 5.78027C14.2344 6.99902 13.8151 8.0105 12.9529 8.87292C12.0905 9.73535 11.0788 10.1545 9.86023 10.1545C8.64185 10.1545 7.63037 9.73517 6.76776 8.87292C5.90533 8.01068 5.48602 6.99902 5.48602 5.78027C5.48602 4.56189 5.90533 3.55023 6.76776 2.68781Z"
    fill="black"/>
  <path
    d="M19.9748 18.4549C19.9424 17.9872 19.8768 17.4771 19.7803 16.9384C19.6829 16.3957 19.5575 15.8826 19.4073 15.4137C19.2521 14.929 19.0413 14.4504 18.7804 13.9917C18.5099 13.5156 18.1921 13.1011 17.8354 12.7599C17.4624 12.4031 17.0057 12.1161 16.4777 11.9069C15.9514 11.6987 15.3682 11.5932 14.7444 11.5932C14.4994 11.5932 14.2625 11.6937 13.8049 11.9916C13.5233 12.1753 13.1938 12.3877 12.8262 12.6226C12.5118 12.8229 12.0859 13.0106 11.5598 13.1805C11.0466 13.3466 10.5255 13.4308 10.0109 13.4308C9.49677 13.4308 8.97565 13.3466 8.46204 13.1805C7.93652 13.0108 7.51044 12.8231 7.19659 12.6228C6.8324 12.3901 6.50281 12.1777 6.21698 11.9915C5.75977 11.6935 5.52283 11.593 5.27783 11.593C4.65381 11.593 4.0708 11.6987 3.54474 11.907C3.01703 12.116 2.56018 12.4029 2.18683 12.7601C1.83014 13.1014 1.51227 13.5158 1.242 13.9917C0.981445 14.4504 0.770508 14.9288 0.615234 15.4139C0.465271 15.8828 0.339844 16.3957 0.242432 16.9384C0.145752 17.4764 0.0803833 17.9867 0.0479737 18.4554C0.0161133 18.9138 0 19.3907 0 19.8727C0 21.1255 0.398254 22.1397 1.18359 22.8877C1.95923 23.6258 2.98535 24.0001 4.23358 24.0001H15.7897C17.0376 24.0001 18.0637 23.6258 18.8395 22.8877C19.6251 22.1403 20.0233 21.1257 20.0233 19.8725C20.0231 19.3889 20.0068 18.9119 19.9748 18.4549ZM17.8698 21.8687C17.3573 22.3565 16.6769 22.5936 15.7896 22.5936H4.23358C3.34607 22.5936 2.66565 22.3565 2.15332 21.8689C1.6507 21.3904 1.40643 20.7373 1.40643 19.8727C1.40643 19.423 1.42126 18.9789 1.45093 18.5527C1.47986 18.1345 1.539 17.675 1.62671 17.1869C1.71332 16.7048 1.82355 16.2523 1.95465 15.8427C2.08044 15.45 2.25201 15.061 2.46478 14.6864C2.66785 14.3293 2.90149 14.023 3.1593 13.7762C3.40045 13.5453 3.70441 13.3563 4.06256 13.2146C4.3938 13.0835 4.76605 13.0117 5.17017 13.0009C5.21942 13.0271 5.30713 13.0771 5.44922 13.1697C5.73834 13.3582 6.07159 13.5731 6.44 13.8084C6.85529 14.0732 7.39032 14.3123 8.02954 14.5187C8.68304 14.73 9.34955 14.8373 10.0111 14.8373C10.6727 14.8373 11.3394 14.73 11.9925 14.5189C12.6323 14.3121 13.1671 14.0732 13.5829 13.808C13.96 13.5671 14.2839 13.3583 14.573 13.1697C14.7151 13.0773 14.8028 13.0271 14.8521 13.0009C15.2563 13.0117 15.6286 13.0835 15.96 13.2146C16.318 13.3563 16.6219 13.5455 16.8631 13.7762C17.1209 14.0228 17.3546 14.3292 17.5576 14.6866C17.7706 15.061 17.9423 15.4501 18.0679 15.8425C18.1992 16.2527 18.3096 16.705 18.3961 17.1867C18.4836 17.6758 18.5429 18.1354 18.5718 18.5529V18.5532C18.6017 18.9778 18.6167 19.4217 18.6169 19.8727C18.6167 20.7375 18.3724 21.3904 17.8698 21.8687Z"
    fill="black"/>
  <path
    d="M23.2169 9.63409C24.5404 9.63409 25.6863 9.15939 26.6229 8.22281C27.5592 7.28638 28.0341 6.14059 28.0341 4.81689C28.0341 3.49365 27.5594 2.34772 26.6228 1.41098C25.6862 0.474701 24.5403 0 23.2169 0C21.8932 0 20.7474 0.474701 19.8109 1.41113C18.8745 2.34756 18.3997 3.4935 18.3997 4.81689C18.3997 6.14059 18.8745 7.28653 19.8109 8.22296C20.7477 9.15924 21.8936 9.63409 23.2169 9.63409ZM20.6398 2.23984C21.3583 1.5213 22.2012 1.17203 23.2169 1.17203C24.2323 1.17203 25.0754 1.5213 25.7941 2.23984C26.5126 2.95853 26.862 3.80157 26.862 4.81689C26.862 5.83252 26.5126 6.67542 25.7941 7.3941C25.0754 8.11279 24.2323 8.46207 23.2169 8.46207C22.2015 8.46207 21.3586 8.11264 20.6398 7.3941C19.9211 6.67557 19.5717 5.83252 19.5717 4.81689C19.5717 3.80157 19.9211 2.95853 20.6398 2.23984Z"
    fill="black"/>
  <path fill-rule="evenodd" clip-rule="evenodd"
        d="M31.4836 14.1151C31.564 14.5641 31.6186 14.9892 31.6456 15.3789C31.6723 15.7597 31.6859 16.1572 31.686 16.5602C31.686 17.6045 31.3542 18.45 30.6996 19.0729C30.053 19.688 29.1979 19.9998 28.1581 19.9998H21.9999V18.8278H28.1579C28.8973 18.8278 29.4644 18.6302 29.8915 18.2237C30.3103 17.8252 30.5139 17.281 30.514 16.5604C30.5139 16.1845 30.5013 15.8147 30.4765 15.4608V15.4605C30.4524 15.1126 30.4029 14.7296 30.33 14.3221C30.258 13.9206 30.166 13.5437 30.0566 13.2019C29.9519 12.8749 29.8088 12.5507 29.6313 12.2386C29.4621 11.9408 29.2674 11.6855 29.0525 11.4799C28.8516 11.2877 28.5983 11.1301 28.3 11.012C28.0238 10.9027 27.7136 10.8429 27.3767 10.8339C27.3356 10.8557 27.2625 10.8975 27.1441 10.9746C26.9032 11.1317 26.6332 11.3057 26.3191 11.5065C25.9725 11.7274 25.5268 11.9266 24.9937 12.0988C24.4494 12.2748 23.8938 12.3642 23.3425 12.3642C22.7912 12.3642 22.2358 12.2748 21.6912 12.0987C21.1585 11.9267 20.7127 11.7274 20.3666 11.5068C20.0596 11.3107 19.7819 11.1316 19.541 10.9746C19.4226 10.8974 19.3495 10.8557 19.3084 10.8339C18.9717 10.8429 18.6614 10.9027 18.3854 11.012C18.2317 11.0728 18.0899 11.1441 17.9611 11.2252C17.6384 10.9636 17.2855 10.7378 16.9084 10.5539C17.2028 10.2928 17.5539 10.0807 17.9539 9.92233C18.3923 9.74869 18.8781 9.66064 19.3981 9.66064C19.6023 9.66064 19.7997 9.74442 20.1808 9.99268C20.4189 10.1479 20.6936 10.3249 20.9971 10.5188C21.2586 10.6857 21.6137 10.8421 22.0516 10.9836C22.4796 11.122 22.9139 11.1922 23.3424 11.1922C23.7712 11.1922 24.2054 11.122 24.6331 10.9836C25.0715 10.842 25.4264 10.6856 25.6884 10.5186C25.9948 10.3229 26.2693 10.1459 26.504 9.99283C26.8853 9.74457 27.0828 9.6608 27.2869 9.6608C27.8068 9.6608 28.2928 9.74869 28.7313 9.92218C29.1714 10.0966 29.5519 10.3357 29.8628 10.6331C30.16 10.9174 30.4249 11.2628 30.6503 11.6595C30.8677 12.0418 31.0433 12.4406 31.1727 12.8445C31.2979 13.2353 31.4024 13.6629 31.4836 14.1151Z"
        fill="black"/>
</svg>
