<svg width="15" height="24" viewBox="0 0 15 24" fill="none" xmlns="http://www.w3.org/2000/svg">
<path fill-rule="evenodd" clip-rule="evenodd" d="M2.48065 0H12.5791C13.5433 0 14.3257 0.78321 14.3265 1.74897V22.2533C14.3265 23.2168 13.5433 24 12.5791 24H2.48065C1.51489 24 0.734711 23.216 0.734711 22.2533V1.74897C0.734711 0.78321 1.51489 0 2.48065 0ZM5.18931 1.77472H9.87115L9.87191 1.26419H5.18931V1.77472ZM11.427 1.98832C11.6731 1.98832 11.8746 1.78835 11.8746 1.54142C11.8746 1.29449 11.6739 1.09377 11.427 1.09452C11.18 1.09452 10.9793 1.29525 10.9793 1.54142C10.9793 1.7876 11.18 1.98832 11.427 1.98832ZM5.39761 22.1367H9.66133V20.8247H5.39761V22.1367Z" fill="black"/>
</svg>
