<svg width="14" height="20" viewBox="0 0 14 20" fill="none" xmlns="http://www.w3.org/2000/svg">
<path d="M7.00002 9.84058C5.78261 9.84058 4.79211 10.8312 4.79211 12.0488C4.79211 12.6768 5.05784 13.2666 5.51584 13.682V15.1666C5.51584 15.985 6.18165 16.6508 7.00002 16.6508C7.81825 16.6508 8.48406 15.985 8.48406 15.1666V13.682C8.94206 13.2666 9.20778 12.6768 9.20778 12.0488C9.20778 10.8312 8.21729 9.84058 7.00002 9.84058ZM7.56297 12.8999L7.29785 13.0757V15.1666C7.29785 15.3309 7.16424 15.4646 7.00002 15.4646C6.83581 15.4646 6.7022 15.3309 6.7022 15.1666V13.0757L6.43707 12.8999C6.14985 12.7092 5.97847 12.3911 5.97847 12.0488C5.97847 11.4852 6.43678 11.0269 7.00002 11.0269C7.56327 11.0269 8.02143 11.4852 8.02143 12.0488C8.02143 12.3911 7.85005 12.7092 7.56297 12.8999Z" fill="black"/>
<path d="M12.2647 7.12921V4.96936C12.2647 2.22926 10.0353 0 7.29521 0H6.70479C3.96468 0 1.73528 2.22926 1.73528 4.96936V7.12921C0.718653 7.54377 0 8.54248 0 9.70644V16.7844C0 18.3188 1.24816 19.5669 2.78235 19.5669H11.2176C12.7518 19.5669 14 18.3188 14 16.7844V9.70644C14 8.54248 13.2813 7.54377 12.2647 7.12921ZM2.92164 4.96936C2.92164 2.88342 4.61885 1.18636 6.70479 1.18636H7.29521C9.3813 1.18636 11.0784 2.88342 11.0784 4.96936V6.92409H9.81602V4.96936C9.81602 3.57938 8.68519 2.4487 7.29521 2.4487H6.70479C5.31481 2.4487 4.18398 3.57938 4.18398 4.96936V6.92409H2.92164V4.96936ZM8.62966 6.92409H5.37034V4.96936C5.37034 4.23369 5.96897 3.63492 6.70479 3.63492H7.29521C8.03103 3.63492 8.62966 4.23369 8.62966 4.96936V6.92409ZM12.8136 16.7844C12.8136 17.6646 12.0977 18.3806 11.2176 18.3806H2.78235C1.90233 18.3806 1.18636 17.6646 1.18636 16.7844V9.70644C1.18636 8.82641 1.90233 8.11045 2.78235 8.11045H11.2176C12.0977 8.11045 12.8136 8.82641 12.8136 9.70644V16.7844Z" fill="black"/>
</svg>
