<svg width="22" height="24" viewBox="0 0 22 24" fill="none" xmlns="http://www.w3.org/2000/svg">
<path d="M10.7433 0C7.31467 0 4.51196 2.80271 4.51196 6.2313C4.51196 9.6599 7.31467 12.4626 10.7433 12.4626C14.1719 12.4626 16.9746 9.6599 16.9746 6.2313C16.9746 2.80271 14.1719 0 10.7433 0Z" fill="black"/>
<path d="M21.437 17.4423C21.2737 17.0341 21.0561 16.6532 20.8112 16.2994C19.5594 14.449 17.6275 13.2246 15.4506 12.9252C15.1786 12.8981 14.8792 12.9524 14.6615 13.1157C13.5187 13.9593 12.1581 14.3946 10.7431 14.3946C9.32814 14.3946 7.96762 13.9593 6.82475 13.1157C6.60705 12.9524 6.30772 12.8708 6.03564 12.9252C3.85876 13.2246 1.8996 14.449 0.675118 16.2994C0.430223 16.6532 0.212514 17.0613 0.0492852 17.4423C-0.0323294 17.6056 -0.00514195 17.796 0.0764726 17.9593C0.294181 18.3402 0.566264 18.7212 0.81116 19.0477C1.1921 19.5648 1.60027 20.0273 2.06288 20.4627C2.44382 20.8436 2.87918 21.1974 3.3146 21.5511C5.46423 23.1566 8.04928 24.0001 10.716 24.0001C13.3826 24.0001 15.9677 23.1565 18.1173 21.5511C18.5527 21.2246 18.988 20.8436 19.369 20.4627C19.8044 20.0273 20.2398 19.5647 20.6207 19.0477C20.8928 18.694 21.1378 18.3402 21.3554 17.9593C21.4914 17.796 21.5186 17.6055 21.437 17.4423Z" fill="black"/>
</svg>
