<svg width="24" height="24" viewBox="0 0 24 24" fill="none" xmlns="http://www.w3.org/2000/svg">
<path fill-rule="evenodd" clip-rule="evenodd" d="M0 4.5V0.9375C0 0.419678 0.419678 0 0.9375 0H4.5C5.01782 0 5.4375 0.419678 5.4375 0.9375C5.4375 1.45532 5.01782 1.875 4.5 1.875H1.875V4.5C1.875 5.01782 1.45532 5.4375 0.9375 5.4375C0.419678 5.4375 0 5.01782 0 4.5ZM23.0625 0H19.5C18.9822 0 18.5625 0.419678 18.5625 0.9375C18.5625 1.45532 18.9822 1.875 19.5 1.875H22.125V4.5C22.125 5.01782 22.5447 5.4375 23.0625 5.4375C23.5803 5.4375 24 5.01782 24 4.5V0.9375C24 0.419678 23.5803 0 23.0625 0ZM4.5 22.125H1.875V19.5C1.875 18.9822 1.45532 18.5625 0.9375 18.5625C0.419678 18.5625 0 18.9822 0 19.5V23.0625C0 23.5803 0.419678 24 0.9375 24H4.5C5.01782 24 5.4375 23.5803 5.4375 23.0625C5.4375 22.5447 5.01782 22.125 4.5 22.125ZM23.0625 18.5625C22.5447 18.5625 22.125 18.9822 22.125 19.5V22.125H19.5C18.9822 22.125 18.5625 22.5447 18.5625 23.0625C18.5625 23.5803 18.9822 24 19.5 24H23.0625C23.5803 24 24 23.5803 24 23.0625V19.5C24 18.9822 23.5803 18.5625 23.0625 18.5625ZM11.1797 4.61719V10.2422C11.1797 10.76 10.76 11.1797 10.2422 11.1797H4.61719C4.09937 11.1797 3.67969 10.76 3.67969 10.2422V4.61719C3.67969 4.09937 4.09937 3.67969 4.61719 3.67969H10.2422C10.76 3.67969 11.1797 4.09937 11.1797 4.61719ZM19.8516 11.1797H14.2266C13.7087 11.1797 13.2891 10.76 13.2891 10.2422V4.61719C13.2891 4.09937 13.7087 3.67969 14.2266 3.67969H19.8516C20.3694 3.67969 20.7891 4.09937 20.7891 4.61719V10.2422C20.7891 10.76 20.3694 11.1797 19.8516 11.1797ZM11.1797 14.2266V19.8516C11.1797 20.3694 10.76 20.7891 10.2422 20.7891H4.61719C4.09937 20.7891 3.67969 20.3694 3.67969 19.8516V14.2266C3.67969 13.7087 4.09937 13.2891 4.61719 13.2891H10.2422C10.76 13.2891 11.1797 13.7087 11.1797 14.2266ZM18.6445 19.582H15.4336C14.9158 19.582 14.4961 19.1624 14.4961 18.6445V15.4336C14.4961 14.9158 14.9158 14.4961 15.4336 14.4961H18.6445C19.1624 14.4961 19.582 14.9158 19.582 15.4336V18.6445C19.582 19.1624 19.1624 19.582 18.6445 19.582Z" fill="black"/>
</svg>
