<svg id="bold" height="512" viewBox="0 0 24 24" width="512" xmlns="http://www.w3.org/2000/svg"><path d="m12 0c-6.617 0-12 5.376-12 11.985 0 1.902.458 3.795 1.327 5.474.252.49.856.684 1.347.429.491-.253.683-.856.429-1.347-.722-1.397-1.103-2.972-1.103-4.556 0-5.506 4.486-9.985 10-9.985s10 4.479 10 9.985c0 1.584-.381 3.159-1.103 4.556-.254.491-.062 1.094.429 1.347.147.076.304.112.458.112.362 0 .712-.197.889-.541.869-1.679 1.327-3.572 1.327-5.474 0-6.609-5.383-11.985-12-11.985z"/><path d="m17.75 19.5h1.5c.414 0 .75-.336.75-.75s-.336-.75-.75-.75h-1.5c-.965 0-1.75.785-1.75 1.75v2.5c0 .965.785 1.75 1.75 1.75h1.5c.414 0 .75-.336.75-.75s-.336-.75-.75-.75h-1.5c-.138 0-.25-.112-.25-.25v-2.5c0-.138.112-.25.25-.25z"/><path d="m11.75 19.5h1.5c.414 0 .75-.336.75-.75s-.336-.75-.75-.75h-1.5c-.965 0-1.75.785-1.75 1.75v3.5c0 .414.336.75.75.75s.75-.336.75-.75v-1.25h1.75c.414 0 .75-.336.75-.75s-.336-.75-.75-.75h-1.75v-.75c0-.138.112-.25.25-.25z"/><path d="m6.5 18.75v1.605l-1.094-1.97c-.167-.298-.513-.447-.844-.362-.331.087-.562.385-.562.727v4.5c0 .414.336.75.75.75s.75-.336.75-.75v-1.605l1.094 1.97c.135.241.388.385.656.385.063 0 .125-.008.188-.024.331-.086.562-.384.562-.726v-4.5c0-.414-.336-.75-.75-.75s-.75.336-.75.75z"/><circle cx="12" cy="13" r="1"/><path d="m14.577 10.271c-.68-.82-1.595-1.271-2.577-1.271s-1.897.451-2.577 1.271c-.265.319-.221.792.098 1.056.32.265.792.22 1.056-.098.78-.94 2.065-.94 2.846 0 .263.317.736.363 1.056.098.319-.264.363-.737.098-1.056z"/><path d="m12 6c-1.739 0-3.365.807-4.578 2.272-.264.319-.22.792.1 1.056.318.263.792.219 1.056-.1.922-1.114 2.138-1.728 3.422-1.728s2.5.614 3.422 1.728c.266.32.738.363 1.056.1.319-.264.364-.737.1-1.056-1.213-1.465-2.839-2.272-4.578-2.272z"/></svg>