<svg width="144" height="144" viewBox="0 0 144 144" fill="none" xmlns="http://www.w3.org/2000/svg">
<path d="M117.823 141.031C87.1345 144.306 56.3531 144.306 25.6647 141.031C13.4279 139.725 3.76256 130.06 2.45656 117.822C-0.818853 87.1334 -0.818853 56.3531 2.45656 25.6647C3.76256 13.4279 13.4279 3.76256 25.6647 2.45656C56.3531 -0.818853 87.1334 -0.818853 117.822 2.45656C130.06 3.76256 139.725 13.4279 141.031 25.6647C144.306 56.3531 144.306 87.1334 141.031 117.822C139.725 130.06 130.061 139.725 117.823 141.031Z" fill="url(#paint0_linear)"/>
<path d="M97.0496 69.5499H73.4501V45.9498C73.4501 44.3218 72.1283 43 70.4997 43C68.8717 43 67.5499 44.3218 67.5499 45.9498V69.5499H43.9498C42.3218 69.5499 41 70.8717 41 72.4997C41 74.1283 42.3218 75.4501 43.9498 75.4501H67.5499V99.0496C67.5499 100.678 68.8717 102 70.4997 102C72.1283 102 73.4501 100.678 73.4501 99.0496V75.4501H97.0496C98.6782 75.4501 100 74.1283 100 72.4997C100 70.8717 98.6782 69.5499 97.0496 69.5499Z" fill="black"/>
<defs>
<linearGradient id="paint0_linear" x1="32.6413" y1="-3.58857" x2="136.032" y2="195.596" gradientUnits="userSpaceOnUse">
<stop stop-color="#FFFCF8"/>
<stop offset="0.1875" stop-color="#FAF8F6"/>
<stop offset="0.4041" stop-color="#ECEEF2"/>
<stop offset="0.6353" stop-color="#D5DCEA"/>
<stop offset="0.875" stop-color="#B5C4DF"/>
<stop offset="1" stop-color="#A1B5D8"/>
</linearGradient>
</defs>
</svg>
