<svg width="23" height="24" viewBox="0 0 23 24" fill="none" xmlns="http://www.w3.org/2000/svg">
<path d="M18.2812 15.5625C16.8921 15.5625 15.6577 16.2376 14.8885 17.2768L8.2665 13.8926C8.37759 13.5152 8.4375 13.116 8.4375 12.7031C8.4375 12.1439 8.32786 11.6098 8.12934 11.121L15.0697 6.95105C15.844 7.85995 16.9964 8.4375 18.2812 8.4375C20.6075 8.4375 22.5 6.54497 22.5 4.21875C22.5 1.89253 20.6075 0 18.2812 0C15.955 0 14.0625 1.89253 14.0625 4.21875C14.0625 4.75641 14.1638 5.27077 14.348 5.74406L7.39031 9.92438C6.6165 9.04228 5.48161 8.48438 4.21875 8.48438C1.89253 8.48438 0 10.3769 0 12.7031C0 15.0293 1.89253 16.9219 4.21875 16.9219C5.63072 16.9219 6.88275 16.2246 7.64892 15.1563L14.2517 18.5306C14.1288 18.9259 14.0625 19.346 14.0625 19.7812C14.0625 22.1075 15.955 24 18.2812 24C20.6075 24 22.5 22.1075 22.5 19.7812C22.5 17.455 20.6075 15.5625 18.2812 15.5625ZM18.2812 1.40625C19.8321 1.40625 21.0938 2.66794 21.0938 4.21875C21.0938 5.76956 19.8321 7.03125 18.2812 7.03125C16.7304 7.03125 15.4688 5.76956 15.4688 4.21875C15.4688 2.66794 16.7304 1.40625 18.2812 1.40625ZM4.21875 15.5156C2.66794 15.5156 1.40625 14.2539 1.40625 12.7031C1.40625 11.1523 2.66794 9.89062 4.21875 9.89062C5.76956 9.89062 7.03125 11.1523 7.03125 12.7031C7.03125 14.2539 5.76956 15.5156 4.21875 15.5156ZM18.2812 22.5938C16.7304 22.5938 15.4688 21.3321 15.4688 19.7812C15.4688 18.2304 16.7304 16.9688 18.2812 16.9688C19.8321 16.9688 21.0938 18.2304 21.0938 19.7812C21.0938 21.3321 19.8321 22.5938 18.2812 22.5938Z" fill="black"/>
</svg>
