<svg width="23" height="24" viewBox="0 0 23 24" fill="none" xmlns="http://www.w3.org/2000/svg">
<path d="M18.2813 15.5625C16.8918 15.5625 15.6675 16.246 14.8984 17.2854L8.24953 13.8808C8.35992 13.5045 8.4375 13.1146 8.4375 12.7031C8.4375 12.145 8.32308 11.6145 8.12541 11.1264L15.0838 6.93919C15.8581 7.848 16.9964 8.4375 18.2813 8.4375C20.6076 8.4375 22.5 6.54511 22.5 4.21875C22.5 1.89239 20.6076 0 18.2813 0C15.9549 0 14.0625 1.89239 14.0625 4.21875C14.0625 4.75486 14.1729 5.26341 14.356 5.73553L7.37695 9.93506C6.60323 9.05325 5.48142 8.48438 4.21875 8.48438C1.89239 8.48438 0 10.3768 0 12.7031C0 15.0295 1.89239 16.9219 4.21875 16.9219C5.63109 16.9219 6.87614 16.2183 7.64227 15.1497L14.2693 18.5432C14.1472 18.9373 14.0625 19.3477 14.0625 19.7812C14.0625 22.1076 15.9549 24 18.2813 24C20.6076 24 22.5 22.1076 22.5 19.7812C22.5 17.4549 20.6076 15.5625 18.2813 15.5625Z" fill="black"/>
</svg>

