<svg width="22" height="16" viewBox="0 0 22 16" fill="none" xmlns="http://www.w3.org/2000/svg">
<path d="M18.8889 0H2.44444C1.096 0 0 1.096 0 2.44444V13.5556C0 14.904 1.096 16 2.44444 16H18.8889C20.2373 16 21.3333 14.904 21.3333 13.5556V2.44444C21.3333 1.096 20.2373 0 18.8889 0ZM6.66667 3.55556C7.89156 3.55556 8.88889 4.55289 8.88889 5.77778C8.88889 7.00267 7.89156 8 6.66667 8C5.44178 8 4.44444 7.00267 4.44444 5.77778C4.44444 4.55289 5.44178 3.55556 6.66667 3.55556ZM10.6667 11.7778C10.6667 12.1458 10.368 12.4444 10 12.4444H3.33333C2.96533 12.4444 2.66667 12.1458 2.66667 11.7778V11.3333C2.66667 9.98489 3.76267 8.88889 5.11111 8.88889H8.22222C9.57067 8.88889 10.6667 9.98489 10.6667 11.3333V11.7778ZM18 12.4444H13.1111C12.7431 12.4444 12.4444 12.1458 12.4444 11.7778C12.4444 11.4098 12.7431 11.1111 13.1111 11.1111H18C18.368 11.1111 18.6667 11.4098 18.6667 11.7778C18.6667 12.1458 18.368 12.4444 18 12.4444ZM18 8.88889H13.1111C12.7431 8.88889 12.4444 8.59022 12.4444 8.22222C12.4444 7.85422 12.7431 7.55556 13.1111 7.55556H18C18.368 7.55556 18.6667 7.85422 18.6667 8.22222C18.6667 8.59022 18.368 8.88889 18 8.88889ZM18 5.33333H13.1111C12.7431 5.33333 12.4444 5.03467 12.4444 4.66667C12.4444 4.29867 12.7431 4 13.1111 4H18C18.368 4 18.6667 4.29867 18.6667 4.66667C18.6667 5.03467 18.368 5.33333 18 5.33333Z" fill="white"/>
</svg>
