<svg width="19" height="16" viewBox="0 0 19 16" fill="none" xmlns="http://www.w3.org/2000/svg">
<path fill-rule="evenodd" clip-rule="evenodd" d="M6.96888 0H11.2355C12.1178 0 12.8355 0.717778 12.8355 1.6V2.13333H17.2869L15.2753 8.16875C15.2024 8.38694 14.9987 8.53333 14.769 8.53333H11.7689V8C11.7689 7.70528 11.5303 7.46667 11.2355 7.46667H6.96888C6.67416 7.46667 6.43555 7.70528 6.43555 8V8.53333H3.43541C3.20569 8.53333 3.00208 8.38694 2.92916 8.16875L0.917633 2.13333H5.36888V1.6C5.36888 0.717778 6.08666 0 6.96888 0ZM6.43555 1.6V2.13333H11.7689V1.6C11.7689 1.30569 11.5299 1.06667 11.2355 1.06667H6.96888C6.67458 1.06667 6.43555 1.30569 6.43555 1.6ZM14.769 9.59996H11.7689V10.1333C11.7689 10.428 11.5303 10.6666 11.2356 10.6666H6.96889C6.67417 10.6666 6.43556 10.428 6.43556 10.1333V9.59996H3.43542C2.74583 9.59996 2.13597 9.16037 1.91764 8.50621L0 2.75232V14.4C0 15.2822 0.717778 16 1.6 16H16.6044C17.4867 16 18.2044 15.2822 18.2044 14.4V2.75274L16.2867 8.50621C16.0685 9.16037 15.4586 9.59996 14.769 9.59996ZM7.50223 8.53333H10.7022V9.59999H7.50223V8.53333Z" fill="black"/>
</svg>
