<svg width="15" height="16" viewBox="0 0 15 16" fill="none" xmlns="http://www.w3.org/2000/svg">
<path d="M7.16226 0C4.87653 0 3.00806 1.86847 3.00806 4.1542C3.00806 6.43993 4.87653 8.3084 7.16226 8.3084C9.44799 8.3084 11.3165 6.43993 11.3165 4.1542C11.3165 1.86847 9.44799 0 7.16226 0Z" fill="black"/>
<path d="M14.2913 11.6283C14.1825 11.3561 14.0374 11.1022 13.8741 10.8664C13.0396 9.63278 11.7517 8.81646 10.3004 8.61691C10.119 8.59878 9.91949 8.63503 9.77435 8.74389C9.01244 9.30625 8.10543 9.59649 7.16209 9.59649C6.21876 9.59649 5.31175 9.30625 4.54984 8.74389C4.4047 8.63503 4.20515 8.58062 4.02376 8.61691C2.57251 8.81646 1.2664 9.63278 0.450079 10.8664C0.286815 11.1022 0.141676 11.3743 0.0328568 11.6283C-0.0215529 11.7371 -0.00342797 11.8641 0.0509818 11.973C0.196121 12.2269 0.377509 12.4809 0.540773 12.6986C0.794732 13.0433 1.06685 13.3516 1.37525 13.6419C1.62921 13.8958 1.91945 14.1317 2.20973 14.3675C3.64282 15.4378 5.36619 16.0001 7.14397 16.0001C8.92175 16.0001 10.6451 15.4378 12.0782 14.3675C12.3684 14.1498 12.6587 13.8958 12.9127 13.6419C13.2029 13.3516 13.4932 13.0432 13.7472 12.6986C13.9286 12.4627 14.0918 12.2269 14.237 11.973C14.3276 11.8641 14.3457 11.7371 14.2913 11.6283Z" fill="black"/>
</svg>
