<svg width="39" height="44" viewBox="0 0 39 44" fill="none" xmlns="http://www.w3.org/2000/svg">
  <path
    d="M19.7447 0.484863C13.5975 0.484863 8.57251 5.50989 8.57251 11.6571C8.57251 17.8043 13.5975 22.8293 19.7447 22.8293C25.8919 22.8293 30.9169 17.8043 30.9169 11.6571C30.9169 5.50989 25.8919 0.484863 19.7447 0.484863Z"
    fill="black"/>
  <path
    d="M38.9177 31.7574C38.6249 31.0256 38.2347 30.3426 37.7956 29.7084C35.5514 26.3908 32.0876 24.1954 28.1846 23.6588C27.6968 23.61 27.1601 23.7075 26.7698 24.0003C24.7208 25.5127 22.2815 26.2932 19.7445 26.2932C17.2075 26.2932 14.7682 25.5127 12.7191 24.0003C12.3288 23.7075 11.7921 23.5612 11.3043 23.6588C7.40136 24.1954 3.88873 26.3908 1.69334 29.7084C1.25426 30.3426 0.863931 31.0745 0.571274 31.7574C0.424946 32.0502 0.473691 32.3917 0.620019 32.6844C1.01035 33.3674 1.49818 34.0505 1.93725 34.6359C2.62024 35.5629 3.35207 36.3922 4.18148 37.1728C4.86447 37.8558 5.64504 38.49 6.42571 39.1243C10.2798 42.0028 14.9146 43.5151 19.6957 43.5151C24.4768 43.5151 29.1116 42.0027 32.9657 39.1243C33.7463 38.5389 34.5269 37.8558 35.21 37.1728C35.9905 36.3922 36.7711 35.5628 37.4542 34.6359C37.942 34.0017 38.3812 33.3674 38.7714 32.6844C39.0153 32.3917 39.064 32.0501 38.9177 31.7574Z"
    fill="black"/>
</svg>
