<svg width="34" height="16" viewBox="0 0 34 16" fill="none" xmlns="http://www.w3.org/2000/svg">
<path d="M0.378525 7.08664C0.37891 7.08626 0.379234 7.08581 0.379684 7.08542L7.12188 0.375738C7.62698 -0.126907 8.44395 -0.125037 8.94672 0.380125C9.44943 0.885222 9.4475 1.70219 8.9424 2.2049L4.41569 6.70968H31.742C32.4547 6.70968 33.0323 7.28735 33.0323 8C33.0323 8.71265 32.4547 9.29032 31.742 9.29032H4.41575L8.94234 13.7951C9.44743 14.2978 9.44937 15.1148 8.94666 15.6199C8.44388 16.1251 7.62685 16.1268 7.12182 15.6243L0.37962 8.91458C0.379234 8.91419 0.37891 8.91374 0.37846 8.91336C-0.126896 8.40897 -0.125282 7.58935 0.378525 7.08664Z" fill="black"/>
</svg>
