<svg width="24" height="20" viewBox="0 0 24 20" fill="none" xmlns="http://www.w3.org/2000/svg">
<path d="M21.1353 3.33356H18.6351L17.2548 1.25009C16.7339 0.468783 15.8224 0 14.8848 0H9.15526C8.21769 0 7.30617 0.468783 6.7853 1.25009L5.40499 3.33356H2.90482C1.31617 3.33356 0.0400391 4.6097 0.0400391 6.19835V16.3032C0.0400391 17.8919 1.31617 19.168 2.90482 19.168H21.1353C22.7239 19.168 24 17.8919 24 16.3032V6.19835C24 4.6097 22.7239 3.33356 21.1353 3.33356ZM12.02 16.8241C8.45208 16.8241 5.56126 13.9333 5.56126 10.3653C5.56126 6.79735 8.45208 3.93256 12.02 3.93256C15.588 3.93256 18.4788 6.82339 18.4788 10.3913C18.4788 13.9333 15.588 16.8241 12.02 16.8241ZM20.7706 7.3703C20.7446 7.3703 20.7186 7.3703 20.6665 7.3703H19.6247C19.156 7.34426 18.7913 6.95361 18.8174 6.48483C18.8434 6.04209 19.182 5.70352 19.6247 5.67748H20.6665C21.1353 5.65143 21.5259 6.01604 21.552 6.48483C21.578 6.95361 21.2394 7.34426 20.7706 7.3703Z" fill="black"/>
<path d="M12.02 6.79736C10.0407 6.79736 8.42603 8.41206 8.42603 10.3914C8.42603 12.3707 10.0407 13.9593 12.02 13.9593C13.9993 13.9593 15.614 12.3446 15.614 10.3653C15.614 8.38602 13.9993 6.79736 12.02 6.79736Z" fill="black"/>
</svg>
