<svg width="144" height="144" viewBox="0 0 144 144" fill="none" xmlns="http://www.w3.org/2000/svg">
<path d="M117.823 141.031C87.1345 144.306 56.3531 144.306 25.6647 141.031C13.4279 139.725 3.76256 130.06 2.45656 117.822C-0.818853 87.1334 -0.818853 56.3531 2.45656 25.6647C3.76256 13.4279 13.4279 3.76256 25.6647 2.45656C56.3531 -0.818853 87.1334 -0.818853 117.822 2.45656C130.06 3.76256 139.725 13.4279 141.031 25.6647C144.306 56.3531 144.306 87.1334 141.031 117.822C139.725 130.06 130.061 139.725 117.823 141.031Z" fill="url(#paint0_linear)"/>
<path d="M96.4659 23.8967C83.9641 23.8967 73.8303 34.0317 73.8303 46.5334V63.4414H61.6482V84.3758L73.8303 95.2869V143.481C88.5018 143.41 103.172 142.594 117.823 141.031C130.061 139.725 139.725 130.06 141.031 117.822C143.468 94.988 144.091 72.104 142.901 49.2439L117.554 23.8967H96.4659Z" fill="url(#paint1_linear)"/>
<path d="M73.8303 143.481C82.1907 143.44 90.55 143.157 98.906 142.631V84.3758H115.544L117.554 63.4414H98.906V50.1482C98.906 47.2121 101.286 44.8322 104.222 44.8322H117.554V23.8967H96.4659C83.9641 23.8967 73.8303 34.0317 73.8303 46.5334V63.4414H61.6482V84.3758H73.8303V143.481Z" fill="white"/>
<defs>
<linearGradient id="paint0_linear" x1="47.6407" y1="20.1741" x2="83.9328" y2="97.8223" gradientUnits="userSpaceOnUse">
<stop stop-color="#3457A0"/>
<stop offset="1" stop-color="#3B5998"/>
</linearGradient>
<linearGradient id="paint1_linear" x1="164.724" y1="118.498" x2="65.1319" y2="68.2795" gradientUnits="userSpaceOnUse">
<stop stop-color="#3457A0" stop-opacity="0"/>
<stop offset="0.3251" stop-color="#2A4C8D" stop-opacity="0.32549"/>
<stop offset="0.7045" stop-color="#22427D" stop-opacity="0.705882"/>
<stop offset="1" stop-color="#1F3F77"/>
</linearGradient>
</defs>
</svg>

