<svg width="93" height="94" viewBox="0 0 93 94" fill="none" xmlns="http://www.w3.org/2000/svg">
<path d="M76.0479 91.4676C56.2403 93.5817 36.3727 93.5817 16.5651 91.4676C8.66693 90.6247 2.42852 84.3863 1.58557 76.4874C-0.528523 56.6798 -0.528523 36.8129 1.58557 17.0053C2.42852 9.10711 8.66693 2.86871 16.5651 2.02575C36.3727 -0.0883372 56.2396 -0.0883372 76.0472 2.02575C83.9461 2.86871 90.1845 9.10711 91.0275 17.0053C93.1415 36.8129 93.1415 56.6798 91.0275 76.4874C90.1845 84.3863 83.9468 90.6247 76.0479 91.4676Z" fill="url(#paint0_linear)"/>
<path d="M47.6531 93.049C53.0493 93.0228 58.4447 92.8398 63.8381 92.5006V54.8999H74.5767L75.874 41.388H63.8381V32.808C63.8381 30.9129 65.3742 29.3768 67.2692 29.3768H75.874V15.8641H62.2631C54.1939 15.8641 47.6531 22.4057 47.6531 30.4748V41.388H39.7903V54.8999H47.6531V93.049Z" fill="white"/>
<defs>
<linearGradient id="paint0_linear" x1="30.7493" y1="13.4614" x2="54.1738" y2="63.5789" gradientUnits="userSpaceOnUse">
<stop stop-color="#3457A0"/>
<stop offset="1" stop-color="#3B5998"/>
</linearGradient>
</defs>
</svg>
