<svg width="94" height="94" viewBox="0 0 94 94" fill="none" xmlns="http://www.w3.org/2000/svg">
<path d="M91.729 17.0053C90.886 9.10711 84.6483 2.868 76.7495 2.02575C56.9412 -0.0883372 37.0749 -0.0883372 17.2673 2.02575C9.36846 2.86871 3.13006 9.10711 2.28711 17.0053C0.173015 36.8129 0.173015 56.6798 2.28711 76.4874C3.13006 84.3863 9.36846 90.6247 17.2666 91.4676C37.0742 93.5817 56.9412 93.5817 76.7495 91.4676C84.6483 90.6247 90.886 84.3863 91.729 76.4874C93.8431 56.6798 93.8431 36.8136 91.729 17.0053Z" fill="url(#paint0_radial)"/>
<path d="M93.1351 56.7229L65.5135 29.1019C64.8691 28.2562 63.8537 27.7072 62.7083 27.7072C60.7596 27.7072 59.179 29.2871 59.179 31.2365C59.179 32.3819 59.728 33.3973 60.5737 34.0417L92.6412 66.1098C92.8589 62.9818 93.0235 59.8524 93.1351 56.7229Z" fill="url(#paint1_linear)"/>
<path d="M17.9019 35.5141C18.0948 34.1518 18.2417 32.7818 18.4869 31.4294C19.8767 23.7693 25.2998 18.5576 33.0538 18.2905C42.3898 17.9697 51.7542 17.9528 61.0888 18.2891C69.5282 18.5929 75.6401 24.8419 75.9037 33.2842C76.1842 42.2486 76.1842 51.2349 75.9037 60.1993C75.6401 68.6415 69.5303 74.8898 61.0895 75.1943C51.7549 75.5314 42.3884 75.5398 33.0545 75.1894C24.6137 74.8721 18.7787 68.609 18.2142 60.154C18.1654 59.4227 18.0085 58.6978 17.9019 57.97C17.9019 50.4845 17.9019 42.9989 17.9019 35.5141ZM47.0158 70.191C51.2878 70.191 55.5641 70.3189 59.8304 70.1613C66.5196 69.9133 70.634 65.9212 70.7902 59.2383C70.9838 50.9112 70.9838 42.5729 70.7902 34.2451C70.634 27.5637 66.5168 23.4782 59.8304 23.3362C51.3436 23.1567 42.8477 23.1581 34.361 23.3362C27.7255 23.4754 23.599 27.4782 23.4188 34.0861C23.1899 42.5185 23.1899 50.9657 23.4188 59.398C23.599 66.0052 27.7255 69.9155 34.3617 70.1613C38.5743 70.3182 42.7975 70.191 47.0158 70.191Z" fill="url(#paint2_linear)"/>
<path d="M17.9019 35.5141C18.0948 34.1518 18.2417 32.7818 18.4869 31.4294C19.8767 23.7693 25.2998 18.5576 33.0538 18.2905C42.3898 17.9697 51.7542 17.9528 61.0888 18.2891C69.5282 18.5929 75.6401 24.8419 75.9037 33.2842C76.1842 42.2486 76.1842 51.2349 75.9037 60.1993C75.6401 68.6415 69.5303 74.8898 61.0895 75.1943C51.7549 75.5314 42.3884 75.5398 33.0545 75.1894C24.6137 74.8721 18.7787 68.609 18.2142 60.154C18.1654 59.4227 18.0085 58.6978 17.9019 57.97C17.9019 50.4845 17.9019 42.9989 17.9019 35.5141ZM47.0158 70.191C51.2878 70.191 55.5641 70.3189 59.8304 70.1613C66.5196 69.9133 70.634 65.9212 70.7902 59.2383C70.9838 50.9112 70.9838 42.5729 70.7902 34.2451C70.634 27.5637 66.5168 23.4782 59.8304 23.3362C51.3436 23.1567 42.8477 23.1581 34.361 23.3362C27.7255 23.4754 23.599 27.4782 23.4188 34.0861C23.1899 42.5185 23.1899 50.9657 23.4188 59.398C23.599 66.0052 27.7255 69.9155 34.3617 70.1613C38.5743 70.3182 42.7975 70.191 47.0158 70.191Z" fill="white"/>
<path d="M47.008 31.9135C38.8159 31.9135 32.1741 38.5546 32.1741 46.7467C32.1741 54.9395 38.8159 61.5807 47.008 61.5807C55.2008 61.5807 61.842 54.9395 61.842 46.7467C61.842 38.5546 55.2008 31.9135 47.008 31.9135ZM47.008 56.4735C41.6359 56.4735 37.2812 52.1188 37.2812 46.7467C37.2812 41.3746 41.6359 37.0199 47.008 37.0199C52.3802 37.0199 56.7348 41.3746 56.7348 46.7467C56.7348 52.1188 52.3802 56.4735 47.008 56.4735Z" fill="white"/>
<path d="M66.237 31.2366C66.237 33.1854 64.6571 34.7653 62.7083 34.7653C60.7596 34.7653 59.179 33.1854 59.179 31.2366C59.179 29.2872 60.7596 27.7073 62.7083 27.7073C64.6571 27.7073 66.237 29.2872 66.237 31.2366Z" fill="white"/>
<defs>
<radialGradient id="paint0_radial" cx="0" cy="0" r="1" gradientUnits="userSpaceOnUse" gradientTransform="translate(19.6867 81.3766) scale(102.136)">
<stop stop-color="#FAE100"/>
<stop offset="0.0544" stop-color="#FADC04"/>
<stop offset="0.1167" stop-color="#FBCE0E"/>
<stop offset="0.1829" stop-color="#FCB720"/>
<stop offset="0.2514" stop-color="#FE9838"/>
<stop offset="0.3054" stop-color="#FF7950"/>
<stop offset="0.4922" stop-color="#FF1C74"/>
<stop offset="1" stop-color="#6C1CD1"/>
</radialGradient>
<linearGradient id="paint1_linear" x1="71.9352" y1="40.4633" x2="56.7407" y2="25.2689" gradientUnits="userSpaceOnUse">
<stop stop-color="#833AB4" stop-opacity="0"/>
<stop offset="1" stop-color="#833AB4"/>
</linearGradient>
<linearGradient id="paint2_linear" x1="65.3965" y1="28.4863" x2="27.9324" y2="65.9503" gradientUnits="userSpaceOnUse">
<stop stop-color="#833AB4"/>
<stop offset="0.0922" stop-color="#9C3495"/>
<stop offset="0.2927" stop-color="#DC2546"/>
<stop offset="0.392" stop-color="#FD1D1D"/>
<stop offset="0.5589" stop-color="#FC6831"/>
<stop offset="0.6887" stop-color="#FC9B40"/>
<stop offset="0.7521" stop-color="#FCAF45"/>
<stop offset="0.7806" stop-color="#FDB750"/>
<stop offset="0.8656" stop-color="#FECB6A"/>
<stop offset="0.9415" stop-color="#FFD87A"/>
<stop offset="1" stop-color="#FFDC80"/>
</linearGradient>
</defs>
</svg>
