<svg width="144" height="144" viewBox="0 0 144 144" fill="none" xmlns="http://www.w3.org/2000/svg">
<path d="M141.543 25.6647C140.237 13.4279 130.573 3.76147 118.335 2.45656C87.6458 -0.818853 56.8666 -0.818853 26.1782 2.45656C13.9403 3.76256 4.27501 13.4279 2.96901 25.6647C-0.306402 56.3531 -0.306402 87.1334 2.96901 117.822C4.27501 130.06 13.9403 139.725 26.1771 141.031C56.8655 144.306 87.6458 144.306 118.335 141.031C130.573 139.725 140.237 130.06 141.543 117.822C144.819 87.1334 144.819 56.3542 141.543 25.6647Z" fill="url(#paint0_radial)"/>
<path d="M141.543 117.822C143.304 101.332 144.116 84.8158 143.984 68.3019L111.187 35.504C107.089 30.8262 101.104 27.9066 94.0717 27.6537C79.6093 27.1326 65.1009 27.1589 50.6364 27.6559C38.6229 28.0697 30.222 36.1444 28.0676 48.0123C27.6877 50.1076 27.46 52.2302 27.1611 54.3409V89.1334C27.3264 90.2609 27.5695 91.383 27.645 92.5172C28.1267 99.7358 31.0934 105.919 35.8434 110.102L69.2193 143.477C85.5985 143.591 101.979 142.777 118.335 141.031C130.573 139.725 140.237 130.06 141.543 117.822Z" fill="url(#paint1_linear)"/>
<path d="M141.543 117.823C140.239 130.058 130.571 139.726 118.335 141.031C101.981 142.776 85.5976 143.591 69.2206 143.477L35.895 110.151C39.7583 113.533 44.794 115.592 50.6377 115.812C65.0989 116.355 79.6106 116.341 94.0719 115.819C107.152 115.347 116.617 105.666 117.025 92.5861C117.461 78.6985 117.461 64.7747 117.025 50.887C116.839 44.8529 114.721 39.5435 111.209 35.5259L143.986 68.303C144.115 84.8147 143.303 101.333 141.543 117.823Z" fill="url(#paint2_linear)"/>
<path d="M89.1873 56.2064C84.9857 51.6316 78.9571 48.7612 72.2563 48.7612C59.5641 48.7612 49.2737 59.0516 49.2737 71.7438C49.2737 78.4446 52.144 84.4733 56.7189 88.6748L109.893 141.849C112.707 141.604 115.522 141.331 118.334 141.031C130.572 139.725 140.238 130.06 141.544 117.822C141.843 115.009 142.116 112.195 142.361 109.38L89.1873 56.2064Z" fill="url(#paint3_linear)"/>
<path d="M143.722 87.2002L100.927 44.4063C99.9286 43.096 98.3555 42.2454 96.5809 42.2454C93.5617 42.2454 91.1128 44.6932 91.1128 47.7135C91.1128 49.488 91.9634 51.0612 93.2738 52.0596L142.957 101.744C143.294 96.8972 143.549 92.0487 143.722 87.2002Z" fill="url(#paint4_linear)"/>
<path d="M27.1611 54.3409C27.46 52.2302 27.6877 50.1076 28.0676 48.0123C30.2209 36.1444 38.6229 28.0697 50.6364 27.6559C65.101 27.1589 79.6093 27.1326 94.0717 27.6537C107.147 28.1244 116.616 37.8062 117.025 50.8859C117.459 64.7747 117.459 78.6974 117.025 92.5861C116.616 105.666 107.15 115.347 94.0728 115.818C79.6104 116.341 65.0988 116.354 50.6375 115.811C37.5599 115.319 28.5197 105.616 27.645 92.5161C27.5695 91.383 27.3264 90.2598 27.1611 89.1323C27.1611 77.5348 27.1611 65.9373 27.1611 54.3409ZM72.2681 108.067C78.8868 108.067 85.5121 108.265 92.122 108.021C102.486 107.636 108.86 101.451 109.102 91.0973C109.402 78.196 109.402 65.2772 109.102 52.3747C108.86 42.023 102.481 35.6934 92.122 35.4733C78.9733 35.1953 65.8103 35.1975 52.6616 35.4733C42.3811 35.689 35.9879 41.8906 35.7087 52.1284C35.354 65.1929 35.354 78.2803 35.7087 91.3447C35.9879 101.581 42.3811 107.64 52.6627 108.021C59.1894 108.264 65.7326 108.067 72.2681 108.067Z" fill="url(#paint5_linear)"/>
<path d="M27.1611 54.3409C27.46 52.2302 27.6877 50.1076 28.0676 48.0123C30.2209 36.1444 38.6229 28.0697 50.6364 27.6559C65.101 27.1589 79.6093 27.1326 94.0717 27.6537C107.147 28.1244 116.616 37.8062 117.025 50.8859C117.459 64.7747 117.459 78.6974 117.025 92.5861C116.616 105.666 107.15 115.347 94.0728 115.818C79.6104 116.341 65.0988 116.354 50.6375 115.811C37.5599 115.319 28.5197 105.616 27.645 92.5161C27.5695 91.383 27.3264 90.2598 27.1611 89.1323C27.1611 77.5348 27.1611 65.9373 27.1611 54.3409ZM72.2681 108.067C78.8868 108.067 85.5121 108.265 92.122 108.021C102.486 107.636 108.86 101.451 109.102 91.0973C109.402 78.196 109.402 65.2772 109.102 52.3747C108.86 42.023 102.481 35.6934 92.122 35.4733C78.9733 35.1953 65.8103 35.1975 52.6616 35.4733C42.3811 35.689 35.9879 41.8906 35.7087 52.1284C35.354 65.1929 35.354 78.2803 35.7087 91.3447C35.9879 101.581 42.3811 107.64 52.6627 108.021C59.1894 108.264 65.7326 108.067 72.2681 108.067Z" fill="white"/>
<path d="M72.2558 48.7622C59.5636 48.7622 49.2732 59.0515 49.2732 71.7437C49.2732 84.437 59.5636 94.7263 72.2558 94.7263C84.9491 94.7263 95.2384 84.437 95.2384 71.7437C95.2384 59.0515 84.9491 48.7622 72.2558 48.7622ZM72.2558 86.8137C63.9326 86.8137 57.1859 80.0669 57.1859 71.7437C57.1859 63.4205 63.9326 56.6738 72.2558 56.6738C80.579 56.6738 87.3258 63.4205 87.3258 71.7437C87.3258 80.0669 80.579 86.8137 72.2558 86.8137Z" fill="white"/>
<path d="M102.048 47.7135C102.048 50.7327 99.5999 53.1806 96.5807 53.1806C93.5614 53.1806 91.1125 50.7327 91.1125 47.7135C91.1125 44.6932 93.5614 42.2454 96.5807 42.2454C99.5999 42.2454 102.048 44.6932 102.048 47.7135Z" fill="white"/>
<defs>
<radialGradient id="paint0_radial" cx="0" cy="0" r="1" gradientUnits="userSpaceOnUse" gradientTransform="translate(29.9266 125.397) scale(158.242)">
<stop stop-color="#FAE100"/>
<stop offset="0.0544" stop-color="#FADC04"/>
<stop offset="0.1167" stop-color="#FBCE0E"/>
<stop offset="0.1829" stop-color="#FCB720"/>
<stop offset="0.2514" stop-color="#FE9838"/>
<stop offset="0.3054" stop-color="#FF7950"/>
<stop offset="0.4922" stop-color="#FF1C74"/>
<stop offset="1" stop-color="#6C1CD1"/>
</radialGradient>
<linearGradient id="paint1_linear" x1="64.0931" y1="63.3777" x2="28.5822" y2="27.8668" gradientUnits="userSpaceOnUse">
<stop stop-color="#833AB4" stop-opacity="0"/>
<stop offset="1" stop-color="#833AB4"/>
</linearGradient>
<linearGradient id="paint2_linear" x1="98.8518" y1="131.237" x2="81.1277" y2="47.6808" gradientUnits="userSpaceOnUse">
<stop stop-color="#833AB4" stop-opacity="0"/>
<stop offset="1" stop-color="#833AB4"/>
</linearGradient>
<linearGradient id="paint3_linear" x1="105.596" y1="105.084" x2="34.4062" y2="33.8936" gradientUnits="userSpaceOnUse">
<stop stop-color="#833AB4" stop-opacity="0"/>
<stop offset="1" stop-color="#833AB4"/>
</linearGradient>
<linearGradient id="paint4_linear" x1="110.876" y1="62.0088" x2="87.3352" y2="38.4676" gradientUnits="userSpaceOnUse">
<stop stop-color="#833AB4" stop-opacity="0"/>
<stop offset="1" stop-color="#833AB4"/>
</linearGradient>
<linearGradient id="paint5_linear" x1="100.746" y1="43.4524" x2="42.7017" y2="101.496" gradientUnits="userSpaceOnUse">
<stop stop-color="#833AB4"/>
<stop offset="0.0922" stop-color="#9C3495"/>
<stop offset="0.2927" stop-color="#DC2546"/>
<stop offset="0.392" stop-color="#FD1D1D"/>
<stop offset="0.5589" stop-color="#FC6831"/>
<stop offset="0.6887" stop-color="#FC9B40"/>
<stop offset="0.7521" stop-color="#FCAF45"/>
<stop offset="0.7806" stop-color="#FDB750"/>
<stop offset="0.8656" stop-color="#FECB6A"/>
<stop offset="0.9415" stop-color="#FFD87A"/>
<stop offset="1" stop-color="#FFDC80"/>
</linearGradient>
</defs>
</svg>
