<svg width="93" height="94" viewBox="0 0 93 94" fill="none" xmlns="http://www.w3.org/2000/svg">
<path d="M76.4349 91.4676C56.6273 93.5817 36.7596 93.5817 16.9521 91.4676C9.05389 90.6247 2.81548 84.3863 1.97253 76.4874C-0.14156 56.6798 -0.14156 36.8129 1.97253 17.0053C2.81548 9.10711 9.05389 2.86871 16.9521 2.02575C36.7596 -0.0883372 56.6266 -0.0883372 76.4342 2.02575C84.3331 2.86871 90.5715 9.10711 91.4144 17.0053C93.5285 36.8129 93.5285 56.6798 91.4144 76.4874C90.5715 84.3863 84.3338 90.6247 76.4349 91.4676Z" fill="url(#paint0_linear)"/>
<path d="M18.7202 37.4319H30.9836V75.4502H18.7202V37.4319Z" fill="white"/>
<path d="M63.5705 36.6135C54.5835 36.6135 50.6358 41.6083 49.6424 43.1289V37.4317H38.342V75.4501H50.6062V56.3533C50.6062 50.8349 53.1463 46.5424 57.9645 46.5424C62.782 46.5424 63.5705 51.8856 63.5705 58.4561V75.4501H75.8347V48.8777C75.8347 42.1044 70.3438 36.6135 63.5705 36.6135Z" fill="white"/>
<path d="M32.1518 25.3436C32.1518 29.3754 28.8839 32.6433 24.8522 32.6433C20.8204 32.6433 17.5518 29.3754 17.5518 25.3436C17.5518 21.3119 20.8204 18.0432 24.8522 18.0432C28.8839 18.0432 32.1518 21.3119 32.1518 25.3436Z" fill="white"/>
<defs>
<linearGradient id="paint0_linear" x1="31.1363" y1="13.4614" x2="54.5608" y2="63.5789" gradientUnits="userSpaceOnUse">
<stop stop-color="#0077B5"/>
<stop offset="1" stop-color="#0066B2"/>
</linearGradient>
</defs>
</svg>
