<svg width="144" height="145" viewBox="0 0 144 145" fill="none" xmlns="http://www.w3.org/2000/svg">
<path d="M118.335 141.741C87.6469 145.016 56.8655 145.016 26.1771 141.741C13.9403 140.435 4.27501 130.769 2.96901 118.531C-0.306402 87.8431 -0.306402 57.0628 2.96901 26.3744C4.27501 14.1376 13.9403 4.47228 26.1771 3.16628C56.8655 -0.109136 87.6458 -0.109136 118.334 3.16628C130.572 4.47228 140.237 14.1376 141.543 26.3744C144.819 57.0628 144.819 87.8431 141.543 118.531C140.237 130.769 130.573 140.435 118.335 141.741Z" fill="url(#paint0_linear)"/>
<path d="M139.996 125.02L47.4004 32.4229C45.3325 29.7244 42.079 27.9827 38.4171 27.9827C32.1706 27.9827 27.1064 33.0458 27.1064 39.2923C27.1064 42.9552 28.8492 46.2087 31.5477 48.2755L123.822 140.551C131.28 138.069 137.225 132.338 139.996 125.02Z" fill="url(#paint1_linear)"/>
<path d="M47.9171 58.0217H28.916V116.924L55.8769 143.885C76.7007 144.673 97.5387 143.961 118.334 141.741C121.97 141.353 125.375 140.222 128.406 138.51L47.9171 58.0217Z" fill="url(#paint2_linear)"/>
<path d="M112.447 62.9558C108.971 59.145 103.967 56.7542 98.405 56.7542C89.6067 56.7542 83.9283 59.8446 80.5489 62.7138L76.8258 58.0218H59.3179V116.925L86.3597 143.966C97.0245 143.619 107.685 142.877 118.335 141.741C130.573 140.435 140.238 130.769 141.544 118.533C142.417 110.351 143.055 102.162 143.463 93.9715L112.447 62.9558Z" fill="url(#paint3_linear)"/>
<path d="M28.917 58.022H47.917V116.925H28.917V58.022Z" fill="white"/>
<path d="M98.4045 56.7542C84.4807 56.7542 78.3645 64.4927 76.8253 66.8486V58.0218H59.3174V116.925H78.3185V87.3374C78.3185 78.7876 82.254 72.1372 89.7189 72.1372C97.1828 72.1372 98.4045 80.4155 98.4045 90.5953V116.925H117.406V75.7553C117.406 65.2612 108.898 56.7542 98.4045 56.7542Z" fill="white"/>
<path d="M49.7267 39.2933C49.7267 45.5398 44.6636 50.6029 38.4171 50.6029C32.1706 50.6029 27.1064 45.5398 27.1064 39.2933C27.1064 33.0469 32.1706 27.9827 38.4171 27.9827C44.6636 27.9827 49.7267 33.0469 49.7267 39.2933Z" fill="white"/>
<defs>
<linearGradient id="paint0_linear" x1="48.1531" y1="20.8838" x2="84.4452" y2="98.532" gradientUnits="userSpaceOnUse">
<stop stop-color="#0077B5"/>
<stop offset="1" stop-color="#0066B2"/>
</linearGradient>
<linearGradient id="paint1_linear" x1="76.5592" y1="77.4352" x2="22.909" y2="23.785" gradientUnits="userSpaceOnUse">
<stop stop-color="#0066B2" stop-opacity="0"/>
<stop offset="1" stop-color="#07485E"/>
</linearGradient>
<linearGradient id="paint2_linear" x1="108.058" y1="127.279" x2="0.020055" y2="76.6361" gradientUnits="userSpaceOnUse">
<stop stop-color="#0066B2" stop-opacity="0"/>
<stop offset="1" stop-color="#07485E"/>
</linearGradient>
<linearGradient id="paint3_linear" x1="134.34" y1="138.383" x2="59.0762" y2="63.1194" gradientUnits="userSpaceOnUse">
<stop stop-color="#0066B2" stop-opacity="0"/>
<stop offset="1" stop-color="#07485E"/>
</linearGradient>
</defs>
</svg>
