<svg width="144" height="144" viewBox="0 0 144 144" fill="none" xmlns="http://www.w3.org/2000/svg">
<path d="M117.823 141.451C87.1345 144.726 56.3531 144.726 25.6647 141.451C13.4279 140.145 3.76256 130.48 2.45656 118.242C-0.818853 87.5533 -0.818853 56.773 2.45656 26.0846C3.76256 13.8478 13.4279 4.18249 25.6647 2.87648C56.3531 -0.398931 87.1334 -0.398931 117.822 2.87648C130.06 4.18249 139.725 13.8478 141.031 26.0846C144.306 56.773 144.306 87.5533 141.031 118.242C139.725 130.48 130.061 140.145 117.823 141.451Z" fill="url(#paint0_linear)"/>
<path d="M141.031 118.242C142.127 107.978 142.854 97.7037 143.216 87.4253L91.5231 35.7325C84.8158 28.3836 75.7755 27.6929 72.6589 27.6929H72.6545C72.5735 27.6929 72.4968 27.6929 72.4235 27.694C72.4235 27.694 70.9073 27.7093 70.7869 27.7093C66.8831 27.7093 53.6534 28.7964 47.4113 42.7902C45.3127 47.4986 45.8152 55.4945 46.2191 61.9194C46.2662 62.6769 46.3176 63.464 46.3603 64.2238C46.0374 64.4022 45.4473 64.6255 44.519 64.6255C43.2798 64.6255 41.8161 64.2336 40.1675 63.4619C39.7296 63.256 39.2249 63.1542 38.6677 63.1542C36.7366 63.1542 34.4278 64.4241 34.0677 66.3169C33.8783 67.312 34.1542 68.6399 36.0174 69.9568C36.3283 70.4506 44.2771 78.4191 44.8562 78.8657C43.9793 80.7771 38.1346 92.5169 26.0729 94.5038C25.0833 94.6669 24.3772 95.5482 24.4319 96.5488C24.4484 96.8465 24.5195 97.1432 24.641 97.43C24.9278 98.1 25.4894 98.7152 26.3291 99.2823L70.9522 143.904C86.5827 143.933 102.214 143.117 117.822 141.451C130.061 140.145 139.725 130.48 141.031 118.242Z" fill="url(#paint1_linear)"/>
<path d="M72.3293 115.654C72.0906 115.654 71.8553 115.647 71.621 115.635H71.6199C71.471 115.647 71.3145 115.654 71.1579 115.654C65.6679 115.654 62.1451 113.163 58.7372 110.754C56.3846 109.092 54.1645 107.522 51.5492 107.087C50.2728 106.875 49.0018 106.768 47.7735 106.768C45.5622 106.768 43.8172 107.11 42.543 107.359C41.769 107.51 41.1001 107.64 40.5933 107.64C40.0634 107.64 39.4887 107.526 39.2391 106.673C39.0212 105.933 38.8647 105.217 38.7136 104.525C38.325 102.742 38.048 101.646 37.3014 101.531C28.594 100.186 26.1024 98.3517 25.5463 97.0512C25.4675 96.8651 25.4226 96.679 25.4127 96.494C25.3843 95.9937 25.7379 95.5525 26.2327 95.4715C39.6168 93.2678 45.6191 79.5882 45.8687 79.0069C45.8753 78.9905 45.883 78.9751 45.8895 78.9587C46.7095 77.2991 46.8693 75.8574 46.3679 74.6772C45.4495 72.5119 42.4543 71.5606 40.4707 70.9311C39.9857 70.7778 39.5259 70.6322 39.1625 70.4899C35.2061 68.9256 34.8766 67.3196 35.0321 66.5008C35.297 65.1061 37.1613 64.134 38.6676 64.134C39.0814 64.134 39.4449 64.2073 39.7514 64.3507C41.5314 65.1849 43.1352 65.6075 44.52 65.6075C46.4325 65.6075 47.2667 64.8028 47.3696 64.6978C47.3203 63.7913 47.2601 62.8455 47.1988 61.869C46.8003 55.5415 46.3055 47.6781 48.3078 43.1897C54.308 29.7356 67.033 28.6912 70.789 28.6912C70.8853 28.6912 72.4366 28.6737 72.4366 28.6737L72.6588 28.6726C76.4246 28.6726 89.1771 29.7203 95.1805 43.181C97.1828 47.6726 96.688 55.5415 96.2884 61.8646L96.272 62.1394C96.2161 63.0206 96.1625 63.8767 96.1176 64.6956C96.2139 64.793 96.9813 65.533 98.7154 65.5987H98.7176C100.036 65.5484 101.55 65.128 103.211 64.3496C103.7 64.123 104.24 64.0749 104.608 64.0749C105.171 64.0749 105.741 64.1832 106.214 64.3814L106.243 64.3923C107.587 64.8696 108.468 65.8111 108.487 66.7963C108.504 67.7225 107.797 69.1171 104.325 70.4888C103.965 70.6301 103.505 70.7757 103.018 70.9311C101.033 71.5606 98.0378 72.5108 97.1204 74.6751C96.6179 75.8563 96.7788 77.2958 97.5977 78.9576C97.6053 78.9729 97.613 78.9883 97.6196 79.0058C97.8692 79.586 103.866 93.2624 117.257 95.4693C117.75 95.5503 118.104 95.9915 118.077 96.4918C118.066 96.6801 118.02 96.8684 117.94 97.0523C117.388 98.3441 114.898 100.176 106.187 101.522C105.476 101.63 105.201 102.558 104.776 104.503C104.62 105.21 104.465 105.905 104.249 106.637C104.064 107.27 103.669 107.567 103.003 107.567H102.895C102.434 107.567 101.777 107.485 100.946 107.321C99.4718 107.033 97.8177 106.767 95.7148 106.767C94.4865 106.767 93.2155 106.874 91.938 107.085C89.3249 107.521 87.1059 109.088 84.7577 110.748C81.3443 113.163 77.8204 115.654 72.3293 115.654Z" fill="white"/>
<path d="M72.6589 29.6546C76.2233 29.6557 88.4995 30.6114 94.2851 43.5817C96.1888 47.8511 95.7017 55.5886 95.3098 61.8044C95.2474 62.7897 95.1872 63.7443 95.139 64.6584L95.1171 65.0503L95.3798 65.3426C95.4849 65.4608 96.4757 66.4953 98.6771 66.5807L98.7144 66.5818L98.7505 66.5807C100.206 66.526 101.846 66.0739 103.629 65.2386C103.89 65.116 104.239 65.0569 104.608 65.0569C105.03 65.0569 105.476 65.1357 105.845 65.2911L105.901 65.313C106.835 65.6404 107.495 66.2578 107.507 66.8161C107.512 67.1336 107.275 68.2688 103.965 69.577C103.641 69.7051 103.215 69.8397 102.721 69.9963C100.568 70.6805 97.3131 71.7128 96.2173 74.2919C95.5999 75.749 95.7674 77.4645 96.7176 79.3923C97.1095 80.3053 103.257 94.159 117.097 96.4393C117.093 96.5028 117.077 96.5761 117.04 96.6604C116.805 97.2133 115.314 99.1203 106.038 100.552C104.585 100.777 104.23 102.402 103.817 104.294C103.669 104.97 103.517 105.654 103.308 106.361C103.245 106.574 103.233 106.587 103.003 106.587C102.972 106.587 102.937 106.587 102.895 106.587C102.483 106.587 101.858 106.502 101.134 106.36C99.8189 106.102 98.0159 105.787 95.7148 105.787C94.4296 105.787 93.105 105.899 91.7782 106.119C88.9396 106.592 86.6297 108.225 84.1841 109.953C80.901 112.274 77.5074 114.673 72.3294 114.673C72.1038 114.673 71.8827 114.666 71.6616 114.655L71.6035 114.652L71.5444 114.658C71.4174 114.669 71.2894 114.673 71.158 114.673C65.9811 114.673 62.5852 112.274 59.3032 109.954C56.8587 108.225 54.5478 106.592 51.7102 106.119C50.3823 105.899 49.0588 105.787 47.7736 105.787C45.4725 105.787 43.6695 106.139 42.3536 106.396C41.63 106.538 41.0039 106.659 40.5933 106.659C40.2572 106.659 40.2507 106.64 40.1795 106.397C39.9715 105.69 39.8194 104.989 39.6716 104.314C39.2589 102.421 38.9009 100.785 37.4504 100.561C28.1737 99.129 26.6838 97.2165 26.4484 96.6648C26.4112 96.5794 26.3959 96.505 26.3926 96.4404C40.231 94.1601 46.3789 80.3085 46.7698 79.3934C47.7211 77.4634 47.8897 75.749 47.2722 74.2941C46.1775 71.7128 42.9218 70.6805 40.7674 69.9952C40.2737 69.8397 39.8478 69.7051 39.5238 69.5759C36.7268 68.4713 35.8674 67.3591 35.9966 66.6847C36.1444 65.9064 37.492 65.116 38.6688 65.116C38.9337 65.116 39.1647 65.1587 39.3355 65.2386C41.2469 66.133 42.9919 66.5884 44.5201 66.5884C46.9252 66.5884 47.9969 65.4685 48.1108 65.3415L48.3713 65.0503L48.3494 64.6595C48.3013 63.7476 48.2411 62.793 48.1787 61.8077C47.7868 55.5919 47.3007 47.861 49.2044 43.5893C54.967 30.6672 67.1831 29.671 70.7902 29.671C70.8788 29.671 72.4465 29.6557 72.4465 29.6557C72.5133 29.6557 72.5833 29.6546 72.6589 29.6546ZM72.6589 27.6929H72.6545C72.5735 27.6929 72.4968 27.6929 72.4235 27.694C72.4235 27.694 70.9073 27.7093 70.7869 27.7093C66.8831 27.7093 53.6534 28.7964 47.4113 42.7913C45.3127 47.4986 45.8152 55.4945 46.2191 61.9194C46.2662 62.678 46.3176 63.464 46.3603 64.2238C46.0374 64.4033 45.4473 64.6255 44.519 64.6255C43.2798 64.6255 41.8161 64.2347 40.1675 63.4618C39.7296 63.2571 39.2249 63.1542 38.6677 63.1542C36.7366 63.1542 34.4278 64.4241 34.0677 66.318C33.8082 67.6809 34.4191 69.67 38.8013 71.4008C39.1976 71.5573 39.6727 71.7084 40.1751 71.8671C41.9858 72.4419 44.7226 73.31 45.4648 75.0593C45.8491 75.9658 45.6958 77.1328 45.0094 78.5252C44.9952 78.557 44.9799 78.5887 44.9657 78.6205C44.7248 79.181 38.9326 92.3855 26.0729 94.5027C25.0833 94.6658 24.3772 95.5482 24.4319 96.5488C24.4484 96.8465 24.5195 97.1432 24.641 97.43C25.6055 99.6862 29.6778 101.34 37.0913 102.491C37.3387 102.826 37.596 104.009 37.7547 104.731C37.9091 105.442 38.0689 106.176 38.2966 106.951C38.5199 107.712 39.1001 108.621 40.5922 108.621C41.1954 108.621 41.907 108.482 42.7302 108.32C43.9651 108.079 45.6564 107.749 47.7736 107.749C48.9472 107.749 50.1645 107.851 51.3895 108.054C53.7815 108.453 55.8144 109.889 58.168 111.553C61.5387 113.936 65.356 116.635 71.158 116.635C71.3167 116.635 71.4777 116.629 71.6353 116.617C71.8247 116.626 72.0688 116.635 72.3283 116.635C78.1325 116.635 81.9487 113.936 85.3171 111.554C87.6763 109.888 89.707 108.452 92.099 108.054C93.3229 107.851 94.5402 107.749 95.7148 107.749C97.7346 107.749 99.3318 108.006 100.758 108.284C101.652 108.459 102.37 108.548 102.895 108.548L102.95 108.549H103.003C104.105 108.549 104.883 107.967 105.191 106.909C105.415 106.152 105.575 105.437 105.733 104.713C105.89 103.994 106.146 102.815 106.394 102.482C113.808 101.331 117.88 99.6797 118.843 97.4333C118.967 97.1454 119.038 96.8465 119.055 96.5466C119.111 95.546 118.404 94.6647 117.416 94.5016C104.549 92.3811 98.7614 79.1799 98.5206 78.6194C98.5075 78.5876 98.4932 78.5559 98.4768 78.5241C97.7904 77.1317 97.6383 75.9658 98.0225 75.0593C98.7647 73.31 101.5 72.4408 103.311 71.8671C103.817 71.7062 104.293 71.5551 104.685 71.4008C107.893 70.1342 109.502 68.5775 109.468 66.7767C109.44 65.3612 108.338 64.099 106.587 63.4739L106.581 63.4717C105.992 63.2276 105.293 63.094 104.607 63.094C104.14 63.094 103.445 63.1575 102.797 63.4608C101.271 64.1756 99.8989 64.5642 98.7177 64.6179C97.9338 64.5807 97.4204 64.3836 97.1281 64.2227C97.1642 63.5702 97.2069 62.8992 97.2507 62.1974L97.2671 61.9249C97.6733 55.4956 98.1769 47.4931 96.0761 42.7814C89.8318 28.7821 76.5736 27.6929 72.6589 27.6929Z" fill="#030303"/>
<defs>
<linearGradient id="paint0_linear" x1="47.6407" y1="20.594" x2="83.9328" y2="98.2422" gradientUnits="userSpaceOnUse">
<stop stop-color="#FFFC00"/>
<stop offset="1" stop-color="#FFE600"/>
</linearGradient>
<linearGradient id="paint1_linear" x1="107.781" y1="135.09" x2="79.9288" y2="85.2934" gradientUnits="userSpaceOnUse">
<stop stop-color="#FFE600" stop-opacity="0"/>
<stop offset="1" stop-color="#FFCE00"/>
</linearGradient>
</defs>
</svg>
