<svg width="93" height="94" viewBox="0 0 93 94" fill="none" xmlns="http://www.w3.org/2000/svg">
<path d="M0.0162354 73.9519C0.0798277 74.5921 0.14554 75.2322 0.214078 75.8724C1.05703 83.7706 7.29543 90.009 15.1943 90.8519C35.0019 92.966 54.8688 92.966 74.6764 90.8519C82.5753 90.009 88.813 83.7706 89.6559 75.8724C89.7245 75.2322 89.7902 74.5921 89.8545 73.9519H0.0162354Z" fill="url(#paint0_linear)"/>
<path d="M76.0642 91.902C56.2566 94.0161 36.3889 94.0161 16.5813 91.902C8.68316 91.059 2.44476 84.8206 1.6018 76.9217C-0.512287 57.1141 -0.512287 37.2472 1.6018 17.4396C2.44476 9.54144 8.68316 3.30303 16.5813 2.46008C36.3889 0.345989 56.2559 0.345989 76.0635 2.46008C83.9623 3.30303 90.2007 9.54144 91.0437 17.4396C93.1578 37.2472 93.1578 57.1141 91.0437 76.9217C90.2007 84.8206 83.963 91.059 76.0642 91.902Z" fill="url(#paint1_linear)"/>
<path d="M75.0262 29.3398C72.9771 30.4117 69.8907 30.907 68.8676 31.0498C68.8591 31.0003 68.8506 30.9529 68.8422 30.9056C72.3207 28.7541 73.3855 24.7032 73.3855 24.7032C71.2311 25.9348 69.3325 26.6181 67.9024 26.9968C67.0983 27.2123 66.4419 27.3289 65.9699 27.3939C63.8021 25.171 60.7751 23.7917 57.4245 23.7917C50.8321 23.7917 45.4868 29.1356 45.4868 35.7301C45.4868 35.9676 45.4932 36.2036 45.5087 36.4374C45.5405 37.0091 45.6133 37.5708 45.7256 38.117C42.5347 38.0696 31.0167 37.091 21.4722 26.0041C21.4722 26.0041 16.1573 35.2772 25.0928 41.6117C25.0928 41.6117 21.4722 41.4987 19.5503 40.1413C19.5503 40.1413 18.9851 49.0768 29.2764 51.9031C29.2764 51.9031 25.658 52.8089 23.8471 52.0168C23.8471 52.0168 25.6573 59.7073 34.7051 60.2739C34.7051 60.2739 28.2159 66.2149 17.6193 65.3599C22.831 68.6597 29.0101 70.5695 35.635 70.5695C54.2626 70.5695 69.3636 55.4692 69.3636 36.8416C69.3636 36.6091 69.3615 36.3767 69.3565 36.1442C69.3615 36.0064 69.3636 35.8693 69.3636 35.7301C69.3636 35.6333 69.3615 35.5365 69.3601 35.4397C72.804 33.1448 75.0262 29.3398 75.0262 29.3398Z" fill="white"/>
<defs>
<linearGradient id="paint0_linear" x1="44.9351" y1="78.9404" x2="44.9351" y2="91.0758" gradientUnits="userSpaceOnUse">
<stop stop-color="#00B0ED" stop-opacity="0"/>
<stop offset="1" stop-color="#00A2CE"/>
</linearGradient>
<linearGradient id="paint1_linear" x1="30.7656" y1="13.8957" x2="54.19" y2="64.0132" gradientUnits="userSpaceOnUse">
<stop stop-color="#00C3FF"/>
<stop offset="1" stop-color="#00B0ED"/>
</linearGradient>
</defs>
</svg>
