<svg width="144" height="144" viewBox="0 0 144 144" fill="none" xmlns="http://www.w3.org/2000/svg">
<path d="M0.512451 113.64C0.610976 114.632 0.712786 115.624 0.818974 116.616C2.12498 128.853 11.7903 138.518 24.0282 139.824C54.7166 143.099 85.4969 143.099 116.185 139.824C128.423 138.518 138.087 128.853 139.393 116.616C139.5 115.624 139.601 114.632 139.701 113.64H0.512451Z" fill="url(#paint0_linear)"/>
<path d="M118.335 141.451C87.6469 144.726 56.8655 144.726 26.1771 141.451C13.9403 140.145 4.27501 130.48 2.96901 118.242C-0.306402 87.5533 -0.306402 56.773 2.96901 26.0846C4.27501 13.8478 13.9403 4.18249 26.1771 2.87648C56.8655 -0.398931 87.6458 -0.398931 118.334 2.87648C130.572 4.18249 140.237 13.8478 141.543 26.0846C144.819 56.773 144.819 87.5533 141.543 118.242C140.237 130.48 130.573 140.145 118.335 141.451Z" fill="url(#paint1_linear)"/>
<path d="M143.969 67.1213L114.185 37.3382C110.847 39.2463 107.906 40.3049 105.69 40.8917C104.444 41.2256 103.427 41.4073 102.696 41.5069C99.3375 38.064 94.6477 35.926 89.4565 35.926C79.2427 35.926 70.9612 44.2065 70.9612 54.4225C70.9612 54.7914 70.971 55.1559 70.9951 55.5194C71.0444 56.405 71.1571 57.2753 71.3312 58.1215C67.0672 58.058 53.208 56.9195 39.9903 45.5891C39.9893 45.5891 39.9893 45.5881 39.9893 45.5881H39.9882L33.7548 39.3536C33.7548 39.3536 26.4421 52.117 37.1933 61.802C37.6652 62.3286 38.1841 62.8485 38.7522 63.3598C38.7971 63.4101 38.8442 63.4594 38.8891 63.5098C37.478 63.4145 33.2337 62.992 30.7772 61.2568C30.7772 61.2568 30.2834 69.0578 36.7828 74.8007L42.0309 80.0937C40.4326 80.2262 38.6646 80.1944 37.4353 79.6558C37.4353 79.6558 38.5234 84.2767 42.7293 87.9746L50.0815 95.3651C45.6709 97.9344 37.9498 101.15 27.7864 100.329L72.3865 143.907C87.7104 143.903 103.034 143.084 118.335 141.451C130.573 140.145 140.239 130.479 141.545 118.243C143.361 101.22 144.167 84.1683 143.969 67.1213Z" fill="url(#paint2_linear)"/>
<path d="M116.727 44.5218C113.553 46.1825 108.771 46.9499 107.186 47.171C107.173 47.0944 107.159 47.021 107.146 46.9477C112.536 43.6143 114.185 37.3382 114.185 37.3382C110.848 39.2463 107.906 40.3049 105.69 40.8917C104.444 41.2256 103.427 41.4062 102.696 41.5069C99.3376 38.0629 94.6478 35.926 89.4566 35.926C79.2429 35.926 70.9613 44.2054 70.9613 54.4225C70.9613 54.7903 70.9711 55.1559 70.9952 55.5183C71.0445 56.4039 71.1572 57.2742 71.3313 58.1204C66.3875 58.0471 48.5424 56.5309 33.7549 39.3536C33.7549 39.3536 25.5204 53.7207 39.3643 63.5349C39.3643 63.5349 33.7549 63.3598 30.7773 61.2568C30.7773 61.2568 29.9015 75.1007 45.8461 79.4796C45.8461 79.4796 40.2401 80.883 37.4343 79.6558C37.4343 79.6558 40.239 91.5708 54.2569 92.4488C54.2569 92.4488 44.203 101.653 27.7854 100.329C35.8601 105.441 45.4334 108.4 55.6976 108.4C84.5577 108.4 107.954 85.0047 107.954 56.1445C107.954 55.7843 107.951 55.4241 107.943 55.064C107.951 54.8505 107.954 54.6381 107.954 54.4225C107.954 54.2725 107.951 54.1225 107.949 53.9725C113.284 50.4169 116.727 44.5218 116.727 44.5218Z" fill="white"/>
<defs>
<linearGradient id="paint0_linear" x1="70.1063" y1="121.369" x2="70.1063" y2="140.171" gradientUnits="userSpaceOnUse">
<stop stop-color="#00B0ED" stop-opacity="0"/>
<stop offset="1" stop-color="#00A2CE"/>
</linearGradient>
<linearGradient id="paint1_linear" x1="48.1531" y1="20.594" x2="84.4452" y2="98.2422" gradientUnits="userSpaceOnUse">
<stop stop-color="#00C3FF"/>
<stop offset="1" stop-color="#00B0ED"/>
</linearGradient>
<linearGradient id="paint2_linear" x1="137.672" y1="135.52" x2="67.5743" y2="65.4222" gradientUnits="userSpaceOnUse">
<stop stop-color="#00B0ED" stop-opacity="0"/>
<stop offset="1" stop-color="#00A2CE"/>
</linearGradient>
</defs>
</svg>
