<svg width="93" height="94" viewBox="0 0 93 94" fill="none" xmlns="http://www.w3.org/2000/svg">
<path d="M76.0479 91.902C56.2403 94.0161 36.3727 94.0161 16.5651 91.902C8.66693 91.059 2.42852 84.8206 1.58557 76.9217C-0.528523 57.1141 -0.528523 37.2472 1.58557 17.4396C2.42852 9.54144 8.66693 3.30303 16.5651 2.46008C36.3727 0.345989 56.2396 0.345989 76.0472 2.46008C83.9461 3.30303 90.1845 9.54144 91.0275 17.4396C93.1415 37.2472 93.1415 57.1141 91.0275 76.9217C90.1845 84.8206 83.9468 91.059 76.0479 91.902Z" fill="url(#paint0_linear)"/>
<path d="M18.7208 74.8911L22.6183 60.6605C20.2138 56.496 18.9498 51.771 18.9512 46.9317C18.9575 31.7903 31.2803 19.4718 46.4216 19.4718C53.7701 19.4753 60.6677 22.3349 65.8533 27.5254C71.0403 32.7167 73.8949 39.6157 73.8921 46.9536C73.8857 62.0949 61.5616 74.4149 46.4223 74.4149C46.4216 74.4149 46.423 74.4149 46.4223 74.4149H46.4103C41.8133 74.4134 37.2961 73.2596 33.2835 71.0727L18.7208 74.8911Z" fill="url(#paint1_linear)"/>
<path fill-rule="evenodd" clip-rule="evenodd" d="M66.555 26.8201C61.1822 21.4438 54.0379 18.4811 46.4259 18.4775C30.7412 18.4775 17.9768 31.2377 17.9705 46.9224C17.9684 51.9363 19.2784 56.8301 21.7684 61.1437L17.731 75.8844L32.8158 71.929C36.9726 74.1957 41.6516 75.3898 46.4139 75.3919H46.4259C62.1085 75.3919 74.875 62.629 74.8814 46.945C74.8842 39.3443 71.9272 32.1972 66.555 26.8201ZM46.4259 70.5879H46.4167C42.1723 70.5851 38.0098 69.4454 34.3794 67.291L33.5153 66.7787L24.5636 69.126L26.9533 60.4011L26.3901 59.5066C24.0224 55.7419 22.7724 51.3915 22.7745 46.9245C22.7795 33.8881 33.3888 23.2823 46.4351 23.2823C52.7527 23.2844 58.6901 25.7476 63.1564 30.216C67.622 34.6851 70.0787 40.6253 70.0773 46.9436C70.0717 59.98 59.4616 70.5879 46.4259 70.5879Z" fill="white"/>
<path fill-rule="evenodd" clip-rule="evenodd" d="M59.3987 52.8796C58.6879 52.5242 55.1925 50.8037 54.5403 50.5662C53.8888 50.3295 53.4147 50.2108 52.9406 50.9231C52.4665 51.6339 51.1042 53.235 50.6894 53.7091C50.2747 54.1839 49.8599 54.2433 49.1491 53.8879C48.4383 53.5311 46.1482 52.7814 43.4314 50.3592C41.318 48.4748 39.8907 46.1473 39.476 45.4358C39.0612 44.7242 39.4315 44.3391 39.7883 43.9844C40.107 43.6665 40.4991 43.1549 40.8545 42.7394C41.2092 42.3247 41.3279 42.0279 41.5653 41.5538C41.802 41.079 41.6833 40.6642 41.506 40.3088C41.3279 39.9527 39.9466 36.4367 39.3142 35.0306C38.7814 33.8471 38.2204 33.8231 37.7138 33.8026C37.2997 33.7849 36.8249 33.7856 36.3515 33.7856C35.8774 33.7856 35.1072 33.9637 34.4557 34.6752C33.8035 35.3868 31.9664 37.1066 31.9664 40.6049C31.9664 44.1031 34.5151 47.4834 34.8698 47.9583C35.2259 48.4324 39.789 55.8402 47.0159 58.6905C53.0218 61.059 54.2442 60.5877 55.5479 60.469C56.8515 60.3503 59.7542 58.7499 60.347 57.0894C60.9391 55.4296 60.9391 54.0066 60.7617 53.7091C60.5837 53.4131 60.1096 53.235 59.3987 52.8796Z" fill="white"/>
<defs>
<linearGradient id="paint0_linear" x1="21.0681" y1="-1.4417" x2="87.8006" y2="127.121" gradientUnits="userSpaceOnUse">
<stop stop-color="#FFFCF8"/>
<stop offset="0.1875" stop-color="#FAF8F6"/>
<stop offset="0.4041" stop-color="#ECEEF2"/>
<stop offset="0.6353" stop-color="#D5DCEA"/>
<stop offset="0.875" stop-color="#B5C4DF"/>
<stop offset="1" stop-color="#A1B5D8"/>
</linearGradient>
<linearGradient id="paint1_linear" x1="46.3063" y1="74.8912" x2="46.3063" y2="19.4717" gradientUnits="userSpaceOnUse">
<stop stop-color="#20B038"/>
<stop offset="1" stop-color="#60D66A"/>
</linearGradient>
</defs>
</svg>
