<svg width="144" height="145" viewBox="0 0 144 145" fill="none" xmlns="http://www.w3.org/2000/svg">
<path d="M117.823 141.741C87.1345 145.016 56.3531 145.016 25.6647 141.741C13.4279 140.435 3.76256 130.769 2.45656 118.531C-0.818853 87.8431 -0.818853 57.0628 2.45656 26.3744C3.76256 14.1376 13.4279 4.47228 25.6647 3.16628C56.3531 -0.109136 87.1334 -0.109136 117.822 3.16628C130.06 4.47228 139.725 14.1376 141.031 26.3744C144.306 57.0628 144.306 87.8431 141.031 118.531C139.725 130.769 130.061 140.435 117.823 141.741Z" fill="url(#paint0_linear)"/>
<path fill-rule="evenodd" clip-rule="evenodd" d="M103.115 40.9079C94.7912 32.5781 84.0038 28.5506 72.2103 28.5452C47.9097 28.5452 28.4148 48.0334 28.405 72.3341C28.4017 80.1022 30.994 87.403 34.8518 94.0862L27.4712 116.924L54.397 143.849C75.5427 144.697 96.7037 143.995 117.823 141.741C130.061 140.435 139.725 130.769 141.031 118.531C142.359 106.096 143.147 93.6451 143.399 81.1915L103.115 40.9079Z" fill="url(#paint1_linear)"/>
<path d="M29.0046 115.385L35.0431 93.3376C31.3178 86.8853 29.3593 79.5649 29.3615 72.0672C29.3714 48.6084 48.4633 29.5229 71.9222 29.5229C83.3073 29.5284 93.994 33.9588 102.028 42.0006C110.064 50.0435 114.487 60.7324 114.483 72.1011C114.473 95.5599 95.3788 114.648 71.9233 114.648C71.9222 114.648 71.9243 114.648 71.9233 114.648H71.9046C64.7824 114.645 57.7838 112.858 51.5669 109.469L29.0046 115.385Z" fill="url(#paint2_linear)"/>
<path fill-rule="evenodd" clip-rule="evenodd" d="M103.115 40.9081C94.7912 32.5783 83.7224 27.9881 71.929 27.9827C47.6283 27.9827 27.8522 47.7523 27.8423 72.0529C27.839 79.8211 29.8686 87.4031 33.7264 94.0864L27.4712 116.925L50.8424 110.796C57.2827 114.308 64.5319 116.158 71.9104 116.162H71.929C96.2264 116.162 116.006 96.3875 116.016 72.088C116.02 60.312 111.439 49.2389 103.115 40.9081ZM71.929 108.718H71.9148C65.3388 108.714 58.8897 106.948 53.2651 103.611L51.9262 102.817L38.0572 106.454L41.7595 92.9359L40.887 91.5499C37.2186 85.7173 35.282 78.9771 35.2853 72.0562C35.293 51.8586 51.7303 35.4268 71.9432 35.4268C81.7311 35.4301 90.9301 39.2463 97.8498 46.1693C104.768 53.0934 108.575 62.2968 108.573 72.0858C108.564 92.2834 92.1255 108.718 71.929 108.718Z" fill="white"/>
<path fill-rule="evenodd" clip-rule="evenodd" d="M92.0281 81.2824C90.9268 80.7318 85.5113 78.0661 84.5008 77.6983C83.4915 77.3316 82.7569 77.1476 82.0224 78.2511C81.2878 79.3524 79.1772 81.8331 78.5346 82.5676C77.892 83.3033 77.2494 83.3952 76.1481 82.8446C75.0468 82.2917 71.4988 81.1302 67.2896 77.3775C64.0153 74.4579 61.8039 70.8519 61.1613 69.7495C60.5187 68.6471 61.0924 68.0505 61.6452 67.5009C62.1389 67.0083 62.7465 66.2157 63.2971 65.572C63.8467 64.9294 64.0306 64.4697 64.3984 63.7351C64.7652 62.9994 64.5812 62.3568 64.3065 61.8062C64.0306 61.2545 61.8904 55.8071 60.9106 53.6286C60.0852 51.795 59.216 51.7577 58.4311 51.726C57.7896 51.6986 57.0539 51.6997 56.3205 51.6997C55.5859 51.6997 54.3927 51.9756 53.3833 53.078C52.3729 54.1804 49.5266 56.8449 49.5266 62.2649C49.5266 67.6849 53.4753 72.922 54.0248 73.6577C54.5766 74.3922 61.6463 85.8693 72.8431 90.2854C82.1483 93.9549 84.0421 93.2247 86.0619 93.0408C88.0817 92.8569 92.5788 90.3774 93.4973 87.8048C94.4146 85.2333 94.4146 83.0285 94.1399 82.5676C93.864 82.1089 93.1294 81.8331 92.0281 81.2824Z" fill="white"/>
<defs>
<linearGradient id="paint0_linear" x1="32.6413" y1="-2.87885" x2="136.032" y2="196.306" gradientUnits="userSpaceOnUse">
<stop stop-color="#FFFCF8"/>
<stop offset="0.1875" stop-color="#FAF8F6"/>
<stop offset="0.4041" stop-color="#ECEEF2"/>
<stop offset="0.6353" stop-color="#D5DCEA"/>
<stop offset="0.875" stop-color="#B5C4DF"/>
<stop offset="1" stop-color="#A1B5D8"/>
</linearGradient>
<linearGradient id="paint1_linear" x1="95.0618" y1="114.878" x2="40.8754" y2="25.8274" gradientUnits="userSpaceOnUse">
<stop stop-color="#A1B5D8" stop-opacity="0"/>
<stop offset="0.3094" stop-color="#90A2BD" stop-opacity="0.309804"/>
<stop offset="0.7554" stop-color="#7C8B9C" stop-opacity="0.756863"/>
<stop offset="1" stop-color="#748290"/>
</linearGradient>
<linearGradient id="paint2_linear" x1="71.7435" y1="115.386" x2="71.7435" y2="29.5229" gradientUnits="userSpaceOnUse">
<stop stop-color="#20B038"/>
<stop offset="1" stop-color="#60D66A"/>
</linearGradient>
</defs>
</svg>
