<svg width="71" height="71" viewBox="0 0 71 71" fill="none" xmlns="http://www.w3.org/2000/svg">
<circle cx="35.5" cy="35.5" r="30.5" fill="#F5F5F5"/>
<circle cx="35.5" cy="35.5" r="35" stroke="#717171"/>
<path d="M35.0018 22C31.1715 22 28.0404 25.1311 28.0404 28.9614C28.0404 32.7917 31.1715 35.9228 35.0018 35.9228C38.8321 35.9228 41.9632 32.7917 41.9632 28.9614C41.9632 25.1311 38.8321 22 35.0018 22Z" fill="#717171"/>
<path d="M46.9487 41.4859C46.7663 41.0299 46.5231 40.6044 46.2495 40.2092C44.8512 38.142 42.6929 36.7741 40.2609 36.4397C39.957 36.4093 39.6226 36.47 39.3794 36.6524C38.1026 37.5948 36.5827 38.0812 35.0019 38.0812C33.4211 38.0812 31.9012 37.5948 30.6244 36.6524C30.3812 36.47 30.0468 36.3789 29.7428 36.4397C27.3109 36.7741 25.1222 38.142 23.7542 40.2092C23.4806 40.6044 23.2374 41.0604 23.0551 41.4859C22.9639 41.6684 22.9943 41.8811 23.0854 42.0635C23.3286 42.4891 23.6326 42.9148 23.9062 43.2795C24.3318 43.8571 24.7878 44.3739 25.3046 44.8602C25.7302 45.2858 26.2165 45.681 26.703 46.0762C29.1045 47.8698 31.9924 48.8121 34.9715 48.8121C37.9506 48.8121 40.8386 47.8697 43.2401 46.0762C43.7264 45.7115 44.2128 45.2858 44.6384 44.8602C45.1248 44.3739 45.6112 43.8571 46.0368 43.2795C46.3408 42.8843 46.6144 42.4891 46.8576 42.0635C47.0095 41.8811 47.0399 41.6683 46.9487 41.4859Z" fill="#717171"/>
</svg>
