<svg width="128" height="153" viewBox="0 0 128 153" fill="none" xmlns="http://www.w3.org/2000/svg">
<path d="M62.6204 73.421C72.7071 73.421 81.4402 69.8034 88.5779 62.6657C95.7132 55.5292 99.3321 46.7972 99.3321 36.7094C99.3321 26.625 95.7144 17.8919 88.5767 10.753C81.439 3.61768 72.7059 0 62.6204 0C52.5325 0 43.8006 3.61768 36.664 10.7542C29.5275 17.8907 25.9087 26.6238 25.9087 36.7094C25.9087 46.7972 29.5275 55.5303 36.664 62.6669C43.8029 69.8022 52.536 73.421 62.6204 73.421ZM42.9807 17.0697C48.4567 11.5938 54.8803 8.93197 62.6204 8.93197C70.3592 8.93197 76.7841 11.5938 82.2612 17.0697C87.7371 22.5468 90.4001 28.9716 90.4001 36.7094C90.4001 44.4494 87.7371 50.8731 82.2612 56.3502C76.7841 61.8273 70.3592 64.4891 62.6204 64.4891C54.8827 64.4891 48.459 61.8261 42.9807 56.3502C37.5036 50.8742 34.8407 44.4494 34.8407 36.7094C34.8407 28.9716 37.5036 22.5468 42.9807 17.0697Z" fill="black"/>
<path d="M126.856 117.203C126.65 114.233 126.234 110.993 125.621 107.572C125.002 104.125 124.206 100.867 123.252 97.8889C122.266 94.8108 120.928 91.771 119.271 88.8581C117.553 85.8346 115.534 83.2019 113.269 81.0355C110.9 78.769 108 76.9468 104.646 75.6177C101.304 74.2955 97.6005 73.6257 93.6386 73.6257C92.0827 73.6257 90.578 74.2641 87.672 76.1561C85.8835 77.3224 83.7915 78.6714 81.4564 80.1633C79.4598 81.4355 76.755 82.6274 73.4141 83.7066C70.1545 84.7613 66.845 85.2962 63.5774 85.2962C60.3121 85.2962 57.0025 84.7613 53.7407 83.7066C50.4033 82.6286 47.6973 81.4366 45.7041 80.1645C43.3912 78.6865 41.298 77.3375 39.4828 76.1549C36.5791 74.2629 35.0744 73.6245 33.5185 73.6245C29.5554 73.6245 25.8528 74.2955 22.5119 75.6188C19.1605 76.9457 16.2592 78.7679 13.8881 81.0366C11.6228 83.2042 9.60411 85.8358 7.88772 88.8581C6.23296 91.771 4.89334 94.8096 3.90723 97.89C2.95484 100.868 2.15828 104.125 1.53963 107.572C0.925641 110.989 0.510498 114.229 0.304671 117.206C0.102332 120.117 0 123.146 0 126.207C0 134.163 2.52923 140.604 7.51677 145.355C12.4427 150.042 18.9594 152.419 26.8866 152.419H100.277C108.202 152.419 114.719 150.042 119.646 145.355C124.635 140.608 127.164 134.164 127.164 126.206C127.163 123.135 127.059 120.105 126.856 117.203ZM113.488 138.883C110.233 141.981 105.912 143.487 100.276 143.487H26.8866C21.2502 143.487 16.929 141.981 13.6753 138.885C10.4832 135.846 8.93197 131.698 8.93197 126.207C8.93197 123.351 9.02617 120.531 9.21455 117.824C9.39828 115.168 9.77389 112.25 10.3309 109.15C10.8809 106.088 11.581 103.215 12.4136 100.613C13.2125 98.1191 14.3021 95.6492 15.6533 93.27C16.943 91.0024 18.4268 89.0569 20.0641 87.4894C21.5956 86.023 23.5259 84.8229 25.8005 83.9229C27.9041 83.0902 30.2682 82.6344 32.8347 82.5658C33.1475 82.7321 33.7045 83.0495 34.6069 83.638C36.4431 84.8345 38.5595 86.1997 40.8992 87.694C43.5365 89.3755 46.9344 90.8942 50.994 92.2048C55.1443 93.5467 59.3771 94.2282 63.5785 94.2282C67.78 94.2282 72.014 93.5467 76.1619 92.2059C80.225 90.8931 83.6217 89.3755 86.2626 87.6917C88.6569 86.1614 90.714 84.8357 92.5502 83.638C93.4526 83.0507 94.0096 82.7321 94.3224 82.5658C96.89 82.6344 99.2541 83.0902 101.359 83.9229C103.632 84.8229 105.563 86.0242 107.094 87.4894C108.731 89.0557 110.215 91.0012 111.505 93.2711C112.857 95.6492 113.948 98.1203 114.746 100.612C115.58 103.217 116.281 106.089 116.83 109.149C117.386 112.255 117.762 115.174 117.946 117.825V117.827C118.136 120.524 118.231 123.343 118.232 126.207C118.231 131.699 116.68 135.846 113.488 138.883Z" fill="black"/>
</svg>
