<svg width="34" height="16" viewBox="0 0 34 16" fill="none" xmlns="http://www.w3.org/2000/svg">
  <path
    d="M0.378403 7.08664C0.378788 7.08626 0.379112 7.08581 0.379562 7.08542L7.12176 0.375738C7.62686 -0.126907 8.44383 -0.125037 8.9466 0.380125C9.44931 0.885222 9.44737 1.70219 8.94228 2.2049L4.41557 6.70968H31.7419C32.4545 6.70968 33.0322 7.28735 33.0322 8C33.0322 8.71265 32.4545 9.29032 31.7419 9.29032H4.41563L8.94221 13.7951C9.44731 14.2978 9.44925 15.1148 8.94654 15.6199C8.44376 16.1251 7.62673 16.1268 7.1217 15.6243L0.379498 8.91458C0.379112 8.91419 0.378788 8.91374 0.378338 8.91336C-0.127018 8.40897 -0.125404 7.58935 0.378403 7.08664Z"
    fill="black"/>
</svg>
