<svg width="16" height="16" viewBox="0 0 16 16" fill="none" xmlns="http://www.w3.org/2000/svg">
  <path
    d="M8 6.99382e-07C10.1369 5.12571e-07 12.1458 0.832157 13.6569 2.34313C15.1678 3.85416 16 5.86312 16 8C16 10.1369 15.1678 12.1458 13.6569 13.6569C12.1458 15.1678 10.1369 16 8 16C5.86312 16 3.85416 15.1678 2.34313 13.6569C0.832157 12.1458 -5.12571e-07 10.1369 -6.99382e-07 8C-8.86194e-07 5.86313 0.832156 3.85416 2.34312 2.34313C3.85416 0.832158 5.86312 8.86194e-07 8 6.99382e-07ZM8 14.75C11.722 14.75 14.75 11.722 14.75 8C14.75 4.27803 11.722 1.25 8 1.25C4.27803 1.25 1.25 4.27803 1.25 8C1.25 11.722 4.27803 14.75 8 14.75ZM4.84766 10.2105C4.89412 10.2836 6.00925 12 7.99994 12C9.99062 12 11.1057 10.2836 11.1522 10.2105C11.3375 9.91931 11.2517 9.53303 10.9605 9.34772C10.6692 9.16238 10.2829 9.24822 10.0977 9.53947C10.0899 9.55156 9.31209 10.75 7.99994 10.75C6.68778 10.75 5.90994 9.55156 5.90222 9.53947C5.71691 9.24825 5.33062 9.16241 5.03941 9.34772C4.74816 9.53303 4.66231 9.91931 4.84766 10.2105ZM5.25 5.15625C5.68147 5.15625 6.03125 5.50603 6.03125 5.9375C6.03125 6.36897 5.68147 6.71875 5.25 6.71875C4.81853 6.71875 4.46875 6.36897 4.46875 5.9375C4.46875 5.50603 4.81853 5.15625 5.25 5.15625ZM9.9375 5.9375C9.9375 6.36897 10.2873 6.71875 10.7187 6.71875C11.1502 6.71875 11.5 6.36897 11.5 5.9375C11.5 5.50603 11.1502 5.15625 10.7187 5.15625C10.2873 5.15625 9.9375 5.50603 9.9375 5.9375Z"
    fill="white"/>
</svg>
